ply
format ascii 1.0
comment Created by Blender 2.79 (sub 0) - www.blender.org, source file: ''
element vertex 10
property float x
property float y
property float z
element face 16
property list uchar uint vertex_indices
end_header
1.000000 -1.000000 1.000000
-1.000000 -1.000000 1.000000
1.000000 -1.000000 -1.000000
-1.000000 -1.000000 -1.000000
-1.000000 1.000000 -1.000000
1.000000 1.000000 -0.999999
1.000000 -0.000000 1.000000
-0.000001 1.000000 1.000000
-1.000000 1.000000 1.000000
1.000000 1.000000 0.000001
3 0 1 2
3 3 1 4
3 5 2 4
3 1 0 6
3 6 7 1
3 1 7 8
3 0 2 6
3 6 2 9
3 2 5 9
3 4 9 5
3 9 4 7
3 8 7 4
3 6 9 7
3 3 4 2
3 3 2 1
3 1 8 4
