ply
format ascii 1.0
comment Created by Blender 2.79 (sub 0) - www.blender.org, source file: ''
element vertex 10
property float x
property float y
property float z
element face 13
property list uchar uint vertex_indices
end_header
1.000000 1.000000 -1.000000
1.000000 -1.000000 -1.000000
-1.000000 -1.000000 -1.000000
-1.000000 1.000000 -1.000000
-1.000000 -1.000000 1.000000
-1.000000 1.000000 1.000000
1.000000 0.999999 1.000000
1.000000 -1.000000 0.000000
-0.000001 -1.000000 1.000000
1.000000 -0.000001 1.000000
4 0 1 2 3
4 2 4 5 3
4 6 0 3 5
3 2 1 7
3 7 8 2
3 2 8 4
3 1 0 7
3 7 0 9
3 0 6 9
3 5 9 6
3 9 5 8
3 4 8 5
3 7 9 8
