ply
format ascii 1.0
comment Created by Blender 2.79 (sub 0) - www.blender.org, source file: ''
element vertex 802
property float x
property float y
property float z
element face 1600
property list uchar uint vertex_indices
end_header
0.329533 2.535075 -0.774776
0.343851 2.344891 -0.850767
0.336374 2.344571 -0.774776
0.337014 2.535301 -0.850767
0.365997 2.345838 -0.923839
0.359170 2.535972 -0.923839
0.401960 2.347377 -0.991182
0.395151 2.537062 -0.991182
0.450357 2.349449 -1.050210
0.443570 2.538529 -1.050210
0.509331 2.351972 -1.098652
0.502569 2.540316 -1.098652
0.576612 2.354851 -1.134647
0.569881 2.542355 -1.134647
0.649616 2.357975 -1.156813
0.642920 2.544568 -1.156813
0.725539 2.361225 -1.164297
0.718876 2.546869 -1.164297
0.801461 2.364474 -1.156813
0.794834 2.549170 -1.156813
0.874466 2.367598 -1.134647
0.867872 2.551383 -1.134647
0.941747 2.370477 -1.098652
0.935183 2.553421 -1.098652
1.000721 2.373001 -1.050210
0.994183 2.555210 -1.050210
1.049118 2.375072 -0.991182
1.042603 2.556676 -0.991182
1.085081 2.376610 -0.923839
1.078582 2.557765 -0.923839
1.107226 2.377558 -0.850767
1.100738 2.558437 -0.850767
1.114704 2.377879 -0.774776
1.100738 2.558437 -0.698783
1.107226 2.377558 -0.698784
1.078582 2.557766 -0.625712
1.085081 2.376610 -0.625712
1.042603 2.556676 -0.558369
1.049118 2.375072 -0.558369
0.994183 2.555210 -0.499343
1.000721 2.373001 -0.499343
0.935183 2.553421 -0.450901
0.941747 2.370477 -0.450901
0.867872 2.551383 -0.414905
0.874466 2.367598 -0.414905
0.794834 2.549170 -0.392739
0.801461 2.364474 -0.392740
0.718876 2.546869 -0.385254
0.725538 2.361225 -0.385254
0.642920 2.544569 -0.392739
0.649616 2.357975 -0.392740
0.569881 2.542355 -0.414906
0.576612 2.354851 -0.414906
0.502569 2.540316 -0.450901
0.509331 2.351972 -0.450902
0.443570 2.538529 -0.499343
0.450357 2.349449 -0.499343
0.395149 2.537062 -0.558369
0.401960 2.347377 -0.558369
0.359170 2.535972 -0.625714
0.365997 2.345839 -0.625712
0.337014 2.535301 -0.698784
0.343851 2.344891 -0.698784
3.472587 0.022153 -0.774776
3.654481 0.029425 -0.698784
3.472595 0.029638 -0.698784
3.275702 0.030702 -0.698784
3.086076 0.033516 -0.698784
3.275628 0.023218 -0.774776
2.895945 0.038307 -0.698784
3.085927 0.026033 -0.774776
2.705147 0.045573 -0.698784
2.895710 0.030827 -0.774776
2.513561 0.055572 -0.698784
2.704810 0.038096 -0.774776
2.320189 0.061884 -0.774776
2.513103 0.048102 -0.774776
2.126560 0.087424 -0.698784
2.320797 0.069344 -0.698784
1.930101 0.111393 -0.698784
2.125766 0.079982 -0.774776
1.730044 0.143821 -0.698784
1.929061 0.103981 -0.774776
1.523551 0.189375 -0.698784
1.728663 0.136466 -0.774776
1.306029 0.259295 -0.698784
1.521653 0.182135 -0.774776
1.086903 0.365892 -0.698784
1.303288 0.252331 -0.774776
0.881650 0.515540 -0.698784
1.083079 0.359459 -0.774776
0.706861 0.706295 -0.698784
0.876675 0.509948 -0.774776
0.568501 0.922083 -0.774777
0.700855 0.701828 -0.774777
0.575258 0.925303 -0.698784
0.482277 1.151518 -0.774776
0.489466 1.153606 -0.698784
0.432148 1.366420 -0.774776
0.439501 1.367820 -0.698784
0.399599 1.568766 -0.774776
0.407014 1.569785 -0.698784
0.376235 1.766061 -0.774776
0.383679 1.766824 -0.698784
0.358948 1.960495 -0.774776
0.366410 1.961071 -0.698784
0.345948 2.153162 -0.774776
0.353419 2.153595 -0.698784
3.654425 0.051591 -0.625712
3.275921 0.052867 -0.625712
3.472619 0.051803 -0.625712
3.086518 0.055678 -0.625712
2.896643 0.060462 -0.625712
2.706146 0.067716 -0.625712
2.514916 0.077697 -0.625712
2.128913 0.109464 -0.625712
2.322597 0.091436 -0.625714
1.933181 0.133344 -0.625712
1.734136 0.165606 -0.625712
1.529173 0.210816 -0.625714
1.314147 0.279921 -0.625712
1.098230 0.384945 -0.625712
0.896382 0.532102 -0.625712
0.724645 0.719526 -0.625714
0.595268 0.934839 -0.625714
0.510751 1.159790 -0.625712
0.461277 1.371965 -0.625712
0.428973 1.572804 -0.625714
0.405731 1.769086 -0.625712
0.388509 1.962782 -0.625712
0.375549 2.154882 -0.625714
3.654333 0.087587 -0.558369
3.276278 0.088861 -0.558369
3.472658 0.087799 -0.558369
3.087235 0.091666 -0.558369
2.897775 0.096440 -0.558369
2.707767 0.103675 -0.558369
2.517118 0.113625 -0.558369
2.132735 0.145257 -0.558369
2.325518 0.127313 -0.558369
1.938181 0.168990 -0.558369
1.740779 0.200984 -0.558369
1.538301 0.245635 -0.558369
1.327330 0.313415 -0.558369
1.116625 0.415886 -0.558369
0.920306 0.558996 -0.558369
0.753525 0.741012 -0.558371
0.627761 0.950326 -0.558371
0.545318 1.169832 -0.558369
0.496636 1.378697 -0.558369
0.464635 1.577706 -0.558369
0.441538 1.772758 -0.558369
0.424399 1.965561 -0.558369
0.411483 2.156970 -0.558369
3.654210 0.136028 -0.499343
3.276759 0.137300 -0.499343
3.472711 0.136241 -0.499343
3.088202 0.140098 -0.499343
2.899300 0.144858 -0.499343
2.709950 0.152068 -0.499343
2.520082 0.161976 -0.499343
2.137878 0.193425 -0.499343
2.329450 0.175595 -0.499343
1.944911 0.216962 -0.499343
1.749720 0.248594 -0.499343
1.550586 0.292493 -0.499343
1.345073 0.358491 -0.499343
1.141380 0.457525 -0.499343
0.952502 0.595191 -0.499343
0.792390 0.769927 -0.499343
0.671490 0.971168 -0.499343
0.591835 1.183348 -0.499343
0.544224 1.387756 -0.499343
0.512625 1.584303 -0.499343
0.489727 1.777700 -0.499343
0.472695 1.969300 -0.499343
0.459843 2.159779 -0.499343
3.654058 0.195055 -0.450901
3.277345 0.196324 -0.450901
3.472775 0.195267 -0.450901
3.089377 0.199113 -0.450901
2.901156 0.203856 -0.450901
2.712610 0.211035 -0.450901
2.523693 0.220892 -0.450901
2.144145 0.252118 -0.450901
2.334240 0.234427 -0.450902
1.953111 0.275417 -0.450901
1.760613 0.306606 -0.450902
1.565555 0.349590 -0.450902
1.366691 0.413417 -0.450901
1.171543 0.508263 -0.450901
0.991735 0.639293 -0.450902
0.839748 0.805160 -0.450902
0.724774 0.996563 -0.450902
0.648518 1.199816 -0.450902
0.602208 1.398795 -0.450901
0.571102 1.592341 -0.450902
0.548445 1.783722 -0.450901
0.531546 1.973856 -0.450901
0.518770 2.163203 -0.450901
3.653887 0.262398 -0.414906
3.278012 0.263664 -0.414906
3.472847 0.262611 -0.414905
3.090721 0.266443 -0.414906
2.903275 0.271165 -0.414906
2.715644 0.278309 -0.414906
2.527812 0.288109 -0.414906
2.151294 0.319080 -0.414906
2.339706 0.301548 -0.414906
1.962467 0.342107 -0.414905
1.773042 0.372792 -0.414906
1.582634 0.414732 -0.414906
1.391356 0.476081 -0.414905
1.205957 0.566149 -0.414906
1.036492 0.689610 -0.414906
0.893778 0.845357 -0.414906
0.785565 1.025537 -0.414906
0.713187 1.218604 -0.414906
0.668365 1.411390 -0.414906
0.637818 1.601512 -0.414906
0.615438 1.790593 -0.414906
0.598688 1.979054 -0.414905
0.586000 2.167108 -0.414906
3.653699 0.335469 -0.392740
3.278736 0.336732 -0.392739
3.472927 0.335682 -0.392739
3.092177 0.339500 -0.392740
2.905576 0.344201 -0.392740
2.718937 0.351306 -0.392739
2.532281 0.361044 -0.392739
2.159051 0.391739 -0.392740
2.345636 0.374378 -0.392740
1.972620 0.414469 -0.392739
1.786528 0.444608 -0.392740
1.601165 0.485415 -0.392740
1.418117 0.544075 -0.392739
1.243298 0.628959 -0.392739
1.085058 0.744207 -0.392740
0.952404 0.888973 -0.392740
0.851529 1.056975 -0.392740
0.783358 1.238991 -0.392740
0.740147 1.425056 -0.392740
0.710207 1.611462 -0.392740
0.688128 1.798048 -0.392739
0.671541 1.984694 -0.392739
0.658949 2.171346 -0.392739
3.653506 0.411461 -0.385254
3.279489 0.412720 -0.385254
3.473009 0.411674 -0.385254
3.093693 0.415477 -0.385254
2.907967 0.420155 -0.385254
2.722362 0.427221 -0.385254
2.536930 0.436893 -0.385254
2.167120 0.467301 -0.385254
2.351805 0.450120 -0.385254
1.983176 0.489725 -0.385254
1.800553 0.519295 -0.385254
1.620436 0.558922 -0.385254
1.445949 0.614787 -0.385254
1.282131 0.694279 -0.385254
1.135565 0.800985 -0.385254
1.013374 0.934333 -0.385254
0.920128 1.089670 -0.385254
0.856333 1.260192 -0.385254
0.814798 1.439267 -0.385254
0.785491 1.621811 -0.385254
0.763723 1.805801 -0.385254
0.747308 1.990559 -0.385254
0.734813 2.175754 -0.385254
3.653312 0.487452 -0.392739
3.280242 0.488708 -0.392739
3.473092 0.487666 -0.392739
3.095208 0.491454 -0.392739
2.910357 0.496109 -0.392740
2.725787 0.503136 -0.392739
2.541579 0.512743 -0.392739
2.175186 0.542864 -0.392739
2.357972 0.525861 -0.392740
1.993734 0.564980 -0.392739
1.814579 0.593982 -0.392740
1.639708 0.632430 -0.392739
1.473781 0.685498 -0.392739
1.320964 0.759600 -0.392739
1.186072 0.857764 -0.392739
1.074343 0.979693 -0.392740
0.988726 1.122365 -0.392740
0.929307 1.281394 -0.392740
0.889448 1.453479 -0.392739
0.860775 1.632160 -0.392740
0.839319 1.813554 -0.392739
0.823072 1.996425 -0.392739
0.810678 2.180161 -0.392739
3.653126 0.560524 -0.414905
3.280967 0.561776 -0.414905
3.473171 0.560737 -0.414905
3.096664 0.564511 -0.414905
2.912658 0.569144 -0.414905
2.729079 0.576133 -0.414905
2.546048 0.585678 -0.414905
2.182945 0.615522 -0.414905
2.363903 0.598691 -0.414905
2.003886 0.637342 -0.414905
1.828066 0.665798 -0.414905
1.658239 0.703112 -0.414905
1.500544 0.753493 -0.414905
1.358305 0.822410 -0.414905
1.234638 0.912361 -0.414905
1.132970 1.023309 -0.414905
1.054689 1.153803 -0.414906
0.999476 1.301780 -0.414905
0.961231 1.467145 -0.414905
0.933167 1.642111 -0.414905
0.912008 1.821008 -0.414905
0.895925 2.002065 -0.414905
0.883626 2.184399 -0.414905
3.652954 0.627867 -0.450901
3.281635 0.629116 -0.450901
3.473244 0.628081 -0.450901
3.098008 0.631840 -0.450901
2.914775 0.636454 -0.450901
2.732113 0.643408 -0.450901
2.550167 0.652895 -0.450901
2.190094 0.682485 -0.450901
2.369369 0.665812 -0.450901
2.013242 0.704033 -0.450901
1.840495 0.731984 -0.450901
1.675318 0.768254 -0.450901
1.525208 0.816157 -0.450901
1.392720 0.880296 -0.450901
1.279397 0.962677 -0.450901
1.187001 1.063506 -0.450901
1.115480 1.182777 -0.450901
1.064145 1.320569 -0.450901
1.027386 1.479739 -0.450901
0.999882 1.651281 -0.450901
0.979000 1.827879 -0.450901
0.963068 2.007263 -0.450901
0.950855 2.188305 -0.450901
3.652802 0.686893 -0.499343
3.282219 0.688140 -0.499343
3.473308 0.687107 -0.499343
3.099184 0.690856 -0.499343
2.916634 0.695452 -0.499343
2.734774 0.702375 -0.499343
2.553778 0.711811 -0.499343
2.196360 0.741178 -0.499343
2.374160 0.724644 -0.499343
2.021442 0.762487 -0.499343
1.851388 0.789997 -0.499343
1.690287 0.825351 -0.499343
1.546827 0.871082 -0.499343
1.422884 0.931034 -0.499343
1.318628 1.006780 -0.499343
1.234358 1.098739 -0.499343
1.168765 1.208173 -0.499343
1.120829 1.337037 -0.499343
1.085371 1.490778 -0.499343
1.058360 1.659320 -0.499343
1.037719 1.833901 -0.499343
1.021919 2.011818 -0.499343
1.009784 2.191729 -0.499343
3.652678 0.735335 -0.558369
3.282700 0.736579 -0.558369
3.473361 0.735549 -0.558369
3.100150 0.739288 -0.558369
2.918158 0.743870 -0.558369
2.736956 0.750768 -0.558369
2.556741 0.760163 -0.558369
2.201504 0.789346 -0.558369
2.378090 0.772927 -0.558369
2.028172 0.810459 -0.558369
1.860328 0.837607 -0.558369
1.702572 0.872210 -0.558369
1.564568 0.916158 -0.558369
1.447639 0.972673 -0.558369
1.350824 1.042974 -0.558369
1.273224 1.127654 -0.558369
1.212494 1.229014 -0.558369
1.167347 1.350552 -0.558369
1.132958 1.499838 -0.558369
1.106350 1.665916 -0.558369
1.085908 1.838843 -0.558369
1.070216 2.015558 -0.558369
1.058143 2.194539 -0.558369
3.652586 0.771331 -0.625712
3.283057 0.772573 -0.625712
3.473400 0.771545 -0.625712
3.100868 0.775276 -0.625712
2.919291 0.779848 -0.625712
2.738579 0.786727 -0.625712
2.558943 0.796091 -0.625712
2.205324 0.825139 -0.625712
2.381012 0.808804 -0.625712
2.033172 0.846106 -0.625712
1.866972 0.872984 -0.625712
1.711702 0.907028 -0.625712
1.577752 0.949653 -0.625712
1.466033 1.003614 -0.625712
1.374748 1.069869 -0.625712
1.302104 1.149140 -0.625712
1.244988 1.244501 -0.625712
1.201913 1.360595 -0.625712
1.168319 1.506570 -0.625712
1.142010 1.670818 -0.625712
1.121716 1.842516 -0.625712
1.106104 2.018336 -0.625712
1.094078 2.196626 -0.625712
3.652531 0.793497 -0.698783
3.283276 0.794739 -0.698783
3.473423 0.793711 -0.698783
3.101310 0.797438 -0.698783
2.919988 0.802003 -0.698784
2.739578 0.808870 -0.698783
2.560298 0.818215 -0.698783
2.207679 0.847179 -0.698783
2.382812 0.830897 -0.698784
2.036252 0.868057 -0.698783
1.871063 0.894769 -0.698783
1.717322 0.928470 -0.698783
1.585871 0.970279 -0.698783
1.477359 1.022667 -0.698783
1.389481 1.086431 -0.698783
1.319888 1.162371 -0.698783
1.264997 1.254038 -0.698784
1.223199 1.366779 -0.698783
1.190094 1.510715 -0.698783
1.163970 1.673837 -0.698783
1.143766 1.844777 -0.698783
1.128204 2.020047 -0.698783
1.116207 2.197912 -0.698784
3.652511 0.800981 -0.774776
3.283350 0.802222 -0.774776
3.473432 0.801196 -0.774776
3.101459 0.804921 -0.774776
2.920224 0.809484 -0.774776
2.739914 0.816347 -0.774776
2.560757 0.825686 -0.774776
2.208472 0.854622 -0.774776
2.383419 0.838356 -0.774776
2.037292 0.875469 -0.774776
1.872444 0.902125 -0.774776
1.719220 0.935710 -0.774776
1.588611 0.977243 -0.774776
1.481184 1.029100 -0.774776
1.394455 1.092023 -0.774776
1.325893 1.166839 -0.774776
1.271755 1.257258 -0.774776
1.230386 1.368867 -0.774776
1.197446 1.512115 -0.774776
1.171384 1.674856 -0.774776
1.151212 1.845541 -0.774776
1.135666 2.020625 -0.774776
1.123680 2.198346 -0.774776
3.473423 0.793711 -0.850767
3.652531 0.793497 -0.850767
3.283276 0.794739 -0.850767
3.101310 0.797438 -0.850767
2.919988 0.802003 -0.850767
2.739578 0.808870 -0.850767
2.382812 0.830896 -0.850767
2.560298 0.818215 -0.850767
2.207677 0.847180 -0.850767
2.036252 0.868057 -0.850767
1.871063 0.894769 -0.850767
1.717322 0.928470 -0.850767
1.585871 0.970279 -0.850767
1.477359 1.022667 -0.850767
1.389481 1.086431 -0.850767
1.264997 1.254038 -0.850767
1.319888 1.162371 -0.850767
1.223199 1.366779 -0.850767
1.190094 1.510715 -0.850767
1.163970 1.673837 -0.850767
1.143766 1.844777 -0.850767
1.128204 2.020047 -0.850767
1.116207 2.197912 -0.850767
3.473400 0.771545 -0.923839
3.652586 0.771331 -0.923839
3.283057 0.772573 -0.923839
3.100868 0.775276 -0.923839
2.919291 0.779848 -0.923839
2.738579 0.786727 -0.923839
2.381012 0.808804 -0.923839
2.558943 0.796091 -0.923839
2.205324 0.825139 -0.923839
2.033172 0.846106 -0.923839
1.866972 0.872984 -0.923839
1.711702 0.907029 -0.923839
1.577752 0.949653 -0.923839
1.466033 1.003614 -0.923839
1.374748 1.069870 -0.923839
1.244988 1.244501 -0.923839
1.302104 1.149140 -0.923839
1.201913 1.360595 -0.923839
1.168319 1.506570 -0.923839
1.142010 1.670818 -0.923839
1.121716 1.842515 -0.923839
1.106104 2.018336 -0.923838
1.094078 2.196626 -0.923839
3.473361 0.735549 -0.991182
3.652678 0.735335 -0.991182
3.282700 0.736580 -0.991182
3.100150 0.739288 -0.991182
2.918158 0.743870 -0.991182
2.736956 0.750768 -0.991182
2.378090 0.772927 -0.991182
2.556741 0.760163 -0.991182
2.201504 0.789347 -0.991182
2.028172 0.810459 -0.991182
1.860328 0.837607 -0.991182
1.702572 0.872210 -0.991182
1.564568 0.916158 -0.991182
1.447639 0.972673 -0.991182
1.350825 1.042975 -0.991182
1.212494 1.229014 -0.991182
1.273224 1.127655 -0.991182
1.167347 1.350552 -0.991182
1.132958 1.499838 -0.991182
1.106350 1.665916 -0.991182
1.085908 1.838843 -0.991182
1.070216 2.015558 -0.991182
1.058143 2.194539 -0.991182
3.473308 0.687107 -1.050210
3.652802 0.686893 -1.050210
3.282219 0.688140 -1.050210
3.099184 0.690856 -1.050210
2.916634 0.695452 -1.050210
2.734774 0.702375 -1.050210
2.374160 0.724644 -1.050210
2.553778 0.711811 -1.050208
2.196360 0.741178 -1.050210
2.021442 0.762487 -1.050208
1.851388 0.789997 -1.050210
1.690287 0.825351 -1.050210
1.546827 0.871082 -1.050210
1.422884 0.931034 -1.050210
1.318628 1.006780 -1.050210
1.168765 1.208173 -1.050210
1.234360 1.098739 -1.050210
1.120829 1.337037 -1.050210
1.085371 1.490779 -1.050210
1.058360 1.659320 -1.050210
1.037719 1.833901 -1.050210
1.021919 2.011818 -1.050210
1.009784 2.191728 -1.050210
3.473244 0.628081 -1.098652
3.652953 0.627867 -1.098652
3.281635 0.629116 -1.098652
3.098008 0.631841 -1.098652
2.914775 0.636455 -1.098652
2.732113 0.643408 -1.098652
2.369369 0.665812 -1.098652
2.550167 0.652895 -1.098652
2.190094 0.682485 -1.098652
2.013242 0.704033 -1.098651
1.840495 0.731984 -1.098652
1.675318 0.768254 -1.098652
1.525208 0.816157 -1.098652
1.392720 0.880296 -1.098652
1.279397 0.962677 -1.098652
1.115480 1.182777 -1.098652
1.187001 1.063506 -1.098652
1.064145 1.320569 -1.098652
1.027386 1.479739 -1.098652
0.999882 1.651281 -1.098652
0.979000 1.827879 -1.098652
0.963068 2.007263 -1.098651
0.950855 2.188305 -1.098652
3.473171 0.560738 -1.134647
3.653126 0.560524 -1.134647
3.280967 0.561776 -1.134647
3.096664 0.564511 -1.134647
2.912657 0.569145 -1.134647
2.729079 0.576133 -1.134647
2.363903 0.598691 -1.134647
2.546048 0.585678 -1.134647
2.182945 0.615523 -1.134647
2.003886 0.637343 -1.134647
1.828066 0.665798 -1.134647
1.658239 0.703113 -1.134647
1.500544 0.753493 -1.134647
1.358305 0.822410 -1.134647
1.234638 0.912361 -1.134647
1.054689 1.153803 -1.134647
1.132970 1.023309 -1.134647
0.999476 1.301780 -1.134647
0.961231 1.467145 -1.134647
0.933167 1.642111 -1.134647
0.912009 1.821008 -1.134647
0.895926 2.002065 -1.134647
0.883626 2.184399 -1.134647
3.473092 0.487666 -1.156813
3.653312 0.487453 -1.156813
3.280242 0.488708 -1.156813
3.095208 0.491454 -1.156813
2.910357 0.496109 -1.156813
2.725787 0.503136 -1.156813
2.357972 0.525861 -1.156813
2.541578 0.512743 -1.156813
2.175186 0.542864 -1.156813
1.993734 0.564980 -1.156813
1.814579 0.593982 -1.156813
1.639708 0.632430 -1.156813
1.473781 0.685498 -1.156813
1.320965 0.759600 -1.156813
1.186072 0.857764 -1.156813
0.988726 1.122365 -1.156813
1.074343 0.979693 -1.156813
0.929307 1.281394 -1.156813
0.889448 1.453479 -1.156813
0.860777 1.632160 -1.156813
0.839319 1.813554 -1.156813
0.823072 1.996425 -1.156813
0.810678 2.180161 -1.156813
3.473009 0.411674 -1.164297
3.653506 0.411461 -1.164297
3.279489 0.412720 -1.164297
3.093693 0.415477 -1.164297
2.907967 0.420155 -1.164297
2.722362 0.427222 -1.164297
2.351805 0.450120 -1.164297
2.536930 0.436894 -1.164297
2.167120 0.467302 -1.164297
1.983176 0.489725 -1.164297
1.800553 0.519295 -1.164297
1.620438 0.558922 -1.164297
1.445949 0.614787 -1.164297
1.282131 0.694280 -1.164297
1.135565 0.800986 -1.164297
0.920128 1.089670 -1.164297
1.013374 0.934333 -1.164297
0.856333 1.260192 -1.164297
0.814798 1.439267 -1.164297
0.785493 1.621811 -1.164297
0.763723 1.805801 -1.164297
0.747308 1.990559 -1.164297
0.734813 2.175754 -1.164297
3.472927 0.335682 -1.156813
3.653699 0.335469 -1.156813
3.278736 0.336732 -1.156813
3.092177 0.339500 -1.156813
2.905576 0.344201 -1.156813
2.718937 0.351307 -1.156813
2.345636 0.374379 -1.156813
2.532281 0.361044 -1.156813
2.159051 0.391739 -1.156813
1.972620 0.414470 -1.156813
1.786528 0.444609 -1.156813
1.601165 0.485415 -1.156813
1.418117 0.544075 -1.156813
1.243298 0.628959 -1.156813
1.085058 0.744207 -1.156813
0.851529 1.056976 -1.156813
0.952405 0.888974 -1.156813
0.783358 1.238991 -1.156813
0.740147 1.425056 -1.156813
0.710209 1.611463 -1.156813
0.688128 1.798048 -1.156813
0.671543 1.984694 -1.156813
0.658949 2.171346 -1.156813
3.472847 0.262611 -1.134647
3.653887 0.262398 -1.134647
3.278012 0.263664 -1.134647
3.090721 0.266443 -1.134647
2.903275 0.271166 -1.134647
2.715644 0.278310 -1.134647
2.339705 0.301548 -1.134647
2.527812 0.288110 -1.134647
2.151294 0.319081 -1.134647
1.962467 0.342107 -1.134647
1.773042 0.372793 -1.134647
1.582634 0.414732 -1.134647
1.391356 0.476081 -1.134647
1.205957 0.566149 -1.134647
1.036492 0.689610 -1.134647
0.785566 1.025537 -1.134647
0.893778 0.845357 -1.134647
0.713187 1.218604 -1.134647
0.668365 1.411390 -1.134647
0.637818 1.601512 -1.134647
0.615438 1.790593 -1.134647
0.598688 1.979054 -1.134647
0.586000 2.167108 -1.134647
3.472775 0.195268 -1.098652
3.654058 0.195055 -1.098652
3.277345 0.196324 -1.098652
3.089377 0.199114 -1.098652
2.901156 0.203856 -1.098652
2.712610 0.211035 -1.098652
2.334240 0.234427 -1.098652
2.523693 0.220893 -1.098652
2.144145 0.252118 -1.098652
1.953111 0.275417 -1.098652
1.760613 0.306607 -1.098652
1.565556 0.349591 -1.098652
1.366691 0.413417 -1.098652
1.171544 0.508263 -1.098652
0.991735 0.639294 -1.098652
0.724774 0.996564 -1.098652
0.839749 0.805160 -1.098652
0.648518 1.199816 -1.098652
0.602209 1.398795 -1.098652
0.571102 1.592341 -1.098652
0.548447 1.783722 -1.098652
0.531546 1.973855 -1.098651
0.518772 2.163202 -1.098652
3.472710 0.136241 -1.050208
3.654210 0.136029 -1.050210
3.276759 0.137301 -1.050210
3.088201 0.140099 -1.050210
2.899300 0.144858 -1.050210
2.709950 0.152068 -1.050210
2.329450 0.175596 -1.050210
2.520082 0.161976 -1.050210
2.137878 0.193425 -1.050210
1.944911 0.216963 -1.050208
1.749720 0.248594 -1.050210
1.550586 0.292494 -1.050210
1.345073 0.358492 -1.050210
1.141380 0.457525 -1.050210
0.952503 0.595191 -1.050210
0.671490 0.971168 -1.050210
0.792390 0.769927 -1.050210
0.591835 1.183348 -1.050210
0.544225 1.387756 -1.050210
0.512625 1.584303 -1.050210
0.489727 1.777700 -1.050210
0.472695 1.969300 -1.050208
0.459844 2.159779 -1.050210
3.472658 0.087799 -0.991182
3.654333 0.087587 -0.991182
3.276278 0.088861 -0.991182
3.087235 0.091666 -0.991182
2.897775 0.096441 -0.991182
2.707767 0.103675 -0.991182
2.325518 0.127313 -0.991182
2.517118 0.113625 -0.991182
2.132735 0.145257 -0.991182
1.938181 0.168990 -0.991182
1.740779 0.200984 -0.991182
1.538301 0.245635 -0.991182
1.327330 0.313416 -0.991182
1.116625 0.415886 -0.991182
0.920306 0.558997 -0.991182
0.627761 0.950326 -0.991182
0.753525 0.741012 -0.991182
0.545318 1.169833 -0.991182
0.496636 1.378697 -0.991182
0.464635 1.577706 -0.991182
0.441538 1.772758 -0.991182
0.424399 1.965561 -0.991182
0.411483 2.156970 -0.991182
3.472619 0.051804 -0.923839
3.654425 0.051591 -0.923839
3.275921 0.052867 -0.923839
3.086518 0.055678 -0.923839
2.896643 0.060463 -0.923839
2.706146 0.067716 -0.923839
2.322597 0.091437 -0.923839
2.514916 0.077697 -0.923839
2.128913 0.109465 -0.923839
1.933181 0.133344 -0.923839
1.734136 0.165607 -0.923839
1.529173 0.210816 -0.923839
1.314147 0.279921 -0.923839
1.098231 0.384946 -0.923839
0.896382 0.532102 -0.923839
0.595268 0.934839 -0.923839
0.724645 0.719526 -0.923839
0.510751 1.159790 -0.923839
0.461277 1.371965 -0.923839
0.428973 1.572804 -0.923839
0.405731 1.769086 -0.923839
0.388510 1.962782 -0.923838
0.375549 2.154881 -0.923839
3.472595 0.029638 -0.850767
3.654481 0.029425 -0.850767
3.275702 0.030702 -0.850767
3.086076 0.033516 -0.850767
2.895945 0.038308 -0.850767
2.705147 0.045573 -0.850767
2.320797 0.069344 -0.850767
2.513561 0.055573 -0.850767
2.126560 0.087424 -0.850767
1.930101 0.111393 -0.850767
1.730044 0.143821 -0.850767
1.523551 0.189375 -0.850767
1.306029 0.259295 -0.850767
1.086903 0.365892 -0.850767
0.881650 0.515540 -0.850767
0.575258 0.925303 -0.850767
0.706861 0.706295 -0.850767
0.489466 1.153606 -0.850767
0.439501 1.367820 -0.850767
0.407014 1.569785 -0.850767
0.383680 1.766824 -0.850767
0.366410 1.961071 -0.850767
0.353419 2.153595 -0.850767
3.654500 0.021941 -0.774776
1.108220 2.558664 -0.774776
0.718876 2.546869 -0.774776
3.653506 0.411461 -0.774776
3 0 1 2
3 3 4 1
3 5 6 4
3 7 8 6
3 9 10 8
3 11 12 10
3 13 14 12
3 15 16 14
3 17 18 16
3 19 20 18
3 21 22 20
3 23 24 22
3 25 26 24
3 27 28 26
3 29 30 28
3 31 32 30
3 32 33 34
3 34 35 36
3 36 37 38
3 38 39 40
3 40 41 42
3 42 43 44
3 44 45 46
3 46 47 48
3 48 49 50
3 50 51 52
3 52 53 54
3 54 55 56
3 56 57 58
3 58 59 60
3 60 61 62
3 0 62 61
3 63 64 65
3 66 63 65
3 67 68 66
3 69 70 67
3 71 72 69
3 73 74 71
3 73 75 76
3 77 75 78
3 79 80 77
3 81 82 79
3 83 84 81
3 85 86 83
3 87 88 85
3 89 90 87
3 91 92 89
3 91 93 94
3 95 96 93
3 97 98 96
3 99 100 98
3 101 102 100
3 103 104 102
3 105 106 104
3 2 107 62
3 108 65 64
3 109 65 110
3 111 66 109
3 112 67 111
3 113 69 112
3 114 71 113
3 114 78 73
3 115 78 116
3 117 77 115
3 118 79 117
3 119 81 118
3 120 83 119
3 121 85 120
3 122 87 121
3 123 89 122
3 123 95 91
3 124 97 95
3 125 99 97
3 126 101 99
3 127 103 101
3 128 105 103
3 129 107 105
3 130 62 107
3 131 110 108
3 132 110 133
3 134 109 132
3 135 111 134
3 136 112 135
3 137 113 136
3 137 116 114
3 138 116 139
3 140 115 138
3 141 117 140
3 142 118 141
3 143 119 142
3 144 120 143
3 145 121 144
3 146 122 145
3 146 124 123
3 147 125 124
3 148 126 125
3 149 127 126
3 150 128 127
3 151 129 128
3 152 130 129
3 153 60 130
3 154 133 131
3 155 133 156
3 157 132 155
3 158 134 157
3 159 135 158
3 160 136 159
3 160 139 137
3 161 139 162
3 163 138 161
3 164 140 163
3 165 141 164
3 166 142 165
3 167 143 166
3 168 144 167
3 169 145 168
3 169 147 146
3 170 148 147
3 171 149 148
3 172 150 149
3 173 151 150
3 174 152 151
3 175 153 152
3 176 58 153
3 177 156 154
3 178 156 179
3 180 155 178
3 181 157 180
3 182 158 181
3 183 159 182
3 183 162 160
3 184 162 185
3 186 161 184
3 187 163 186
3 188 164 187
3 189 165 188
3 190 166 189
3 191 167 190
3 192 168 191
3 192 170 169
3 193 171 170
3 194 172 171
3 195 173 172
3 196 174 173
3 197 175 174
3 198 176 175
3 199 56 176
3 200 179 177
3 201 179 202
3 203 178 201
3 204 180 203
3 205 181 204
3 206 182 205
3 206 185 183
3 207 185 208
3 209 184 207
3 210 186 209
3 211 187 210
3 212 188 211
3 213 189 212
3 214 190 213
3 215 191 214
3 215 193 192
3 216 194 193
3 217 195 194
3 218 196 195
3 219 197 196
3 220 198 197
3 221 199 198
3 222 54 199
3 223 202 200
3 224 202 225
3 226 201 224
3 227 203 226
3 228 204 227
3 229 205 228
3 229 208 206
3 230 208 231
3 232 207 230
3 233 209 232
3 234 210 233
3 235 211 234
3 236 212 235
3 237 213 236
3 238 214 237
3 238 216 215
3 239 217 216
3 240 218 217
3 241 219 218
3 242 220 219
3 243 221 220
3 244 222 221
3 245 52 222
3 246 225 223
3 247 225 248
3 249 224 247
3 250 226 249
3 251 227 250
3 252 228 251
3 252 231 229
3 253 231 254
3 255 230 253
3 256 232 255
3 257 233 256
3 258 234 257
3 259 235 258
3 260 236 259
3 261 237 260
3 261 239 238
3 262 240 239
3 263 241 240
3 264 242 241
3 265 243 242
3 266 244 243
3 267 245 244
3 268 50 245
3 269 248 246
3 270 248 271
3 272 247 270
3 273 249 272
3 274 250 273
3 275 251 274
3 275 254 252
3 276 254 277
3 278 253 276
3 279 255 278
3 280 256 279
3 281 257 280
3 282 258 281
3 283 259 282
3 284 260 283
3 284 262 261
3 285 263 262
3 286 264 263
3 287 265 264
3 288 266 265
3 289 267 266
3 290 268 267
3 291 48 268
3 292 271 269
3 293 271 294
3 295 270 293
3 296 272 295
3 297 273 296
3 298 274 297
3 298 277 275
3 299 277 300
3 301 276 299
3 302 278 301
3 303 279 302
3 304 280 303
3 305 281 304
3 306 282 305
3 307 283 306
3 307 285 284
3 308 286 285
3 309 287 286
3 310 288 287
3 311 289 288
3 312 290 289
3 313 291 290
3 314 46 291
3 315 294 292
3 316 294 317
3 318 293 316
3 319 295 318
3 320 296 319
3 321 297 320
3 321 300 298
3 322 300 323
3 324 299 322
3 325 301 324
3 326 302 325
3 327 303 326
3 328 304 327
3 329 305 328
3 330 306 329
3 330 308 307
3 331 309 308
3 332 310 309
3 333 311 310
3 334 312 311
3 335 313 312
3 336 314 313
3 337 44 314
3 338 317 315
3 339 317 340
3 341 316 339
3 342 318 341
3 343 319 342
3 344 320 343
3 344 323 321
3 345 323 346
3 347 322 345
3 348 324 347
3 349 325 348
3 350 326 349
3 351 327 350
3 352 328 351
3 353 329 352
3 353 331 330
3 354 332 331
3 355 333 332
3 356 334 333
3 357 335 334
3 358 336 335
3 359 337 336
3 360 42 337
3 361 340 338
3 362 340 363
3 364 339 362
3 365 341 364
3 366 342 365
3 367 343 366
3 367 346 344
3 368 346 369
3 370 345 368
3 371 347 370
3 372 348 371
3 373 349 372
3 374 350 373
3 375 351 374
3 376 352 375
3 376 354 353
3 377 355 354
3 378 356 355
3 379 357 356
3 380 358 357
3 381 359 358
3 382 360 359
3 383 40 360
3 384 363 361
3 385 363 386
3 387 362 385
3 388 364 387
3 389 365 388
3 390 366 389
3 390 369 367
3 391 369 392
3 393 368 391
3 394 370 393
3 395 371 394
3 396 372 395
3 397 373 396
3 398 374 397
3 399 375 398
3 399 377 376
3 400 378 377
3 401 379 378
3 402 380 379
3 403 381 380
3 404 382 381
3 405 383 382
3 406 38 383
3 407 386 384
3 408 386 409
3 410 385 408
3 411 387 410
3 412 388 411
3 413 389 412
3 413 392 390
3 414 392 415
3 416 391 414
3 417 393 416
3 418 394 417
3 419 395 418
3 420 396 419
3 421 397 420
3 422 398 421
3 422 400 399
3 423 401 400
3 424 402 401
3 425 403 402
3 426 404 403
3 427 405 404
3 428 406 405
3 429 36 406
3 430 409 407
3 431 409 432
3 433 408 431
3 434 410 433
3 435 411 434
3 436 412 435
3 436 415 413
3 437 415 438
3 439 414 437
3 440 416 439
3 441 417 440
3 442 418 441
3 443 419 442
3 444 420 443
3 445 421 444
3 445 423 422
3 446 424 423
3 447 425 424
3 448 426 425
3 449 427 426
3 450 428 427
3 451 429 428
3 452 34 429
3 453 430 454
3 453 431 432
3 455 433 431
3 456 434 433
3 457 435 434
3 458 436 435
3 459 436 460
3 459 437 438
3 461 439 437
3 462 440 439
3 463 441 440
3 464 442 441
3 465 443 442
3 466 444 443
3 467 445 444
3 468 445 469
3 470 446 468
3 471 447 470
3 472 448 471
3 473 449 472
3 474 450 473
3 475 451 474
3 30 452 475
3 476 454 477
3 476 455 453
3 478 456 455
3 479 457 456
3 480 458 457
3 481 460 458
3 482 460 483
3 482 461 459
3 484 462 461
3 485 463 462
3 486 464 463
3 487 465 464
3 488 466 465
3 489 467 466
3 490 469 467
3 491 469 492
3 493 468 491
3 494 470 493
3 495 471 494
3 496 472 495
3 497 473 496
3 498 474 497
3 28 475 498
3 499 477 500
3 499 478 476
3 501 479 478
3 502 480 479
3 503 481 480
3 504 483 481
3 505 483 506
3 505 484 482
3 507 485 484
3 508 486 485
3 509 487 486
3 510 488 487
3 511 489 488
3 512 490 489
3 513 492 490
3 514 492 515
3 516 491 514
3 517 493 516
3 518 494 517
3 519 495 518
3 520 496 519
3 521 497 520
3 26 498 521
3 522 500 523
3 522 501 499
3 524 502 501
3 525 503 502
3 526 504 503
3 527 506 504
3 528 506 529
3 528 507 505
3 530 508 507
3 531 509 508
3 532 510 509
3 533 511 510
3 534 512 511
3 535 513 512
3 536 515 513
3 537 515 538
3 539 514 537
3 540 516 539
3 541 517 540
3 542 518 541
3 543 519 542
3 544 520 543
3 24 521 544
3 545 523 546
3 545 524 522
3 547 525 524
3 548 526 525
3 549 527 526
3 550 529 527
3 551 529 552
3 551 530 528
3 553 531 530
3 554 532 531
3 555 533 532
3 556 534 533
3 557 535 534
3 558 536 535
3 559 538 536
3 560 538 561
3 562 537 560
3 563 539 562
3 564 540 563
3 565 541 564
3 566 542 565
3 567 543 566
3 22 544 567
3 568 546 569
3 568 547 545
3 570 548 547
3 571 549 548
3 572 550 549
3 573 552 550
3 574 552 575
3 574 553 551
3 576 554 553
3 577 555 554
3 578 556 555
3 579 557 556
3 580 558 557
3 581 559 558
3 582 561 559
3 583 561 584
3 585 560 583
3 586 562 585
3 587 563 586
3 588 564 587
3 589 565 588
3 590 566 589
3 20 567 590
3 591 569 592
3 591 570 568
3 593 571 570
3 594 572 571
3 595 573 572
3 596 575 573
3 597 575 598
3 597 576 574
3 599 577 576
3 600 578 577
3 601 579 578
3 602 580 579
3 603 581 580
3 604 582 581
3 605 584 582
3 606 584 607
3 608 583 606
3 609 585 608
3 610 586 609
3 611 587 610
3 612 588 611
3 613 589 612
3 18 590 613
3 614 592 615
3 614 593 591
3 616 594 593
3 617 595 594
3 618 596 595
3 619 598 596
3 620 598 621
3 620 599 597
3 622 600 599
3 623 601 600
3 624 602 601
3 625 603 602
3 626 604 603
3 627 605 604
3 628 607 605
3 629 607 630
3 631 606 629
3 632 608 631
3 633 609 632
3 634 610 633
3 635 611 634
3 636 612 635
3 16 613 636
3 637 615 638
3 637 616 614
3 639 617 616
3 640 618 617
3 641 619 618
3 642 621 619
3 643 621 644
3 643 622 620
3 645 623 622
3 646 624 623
3 647 625 624
3 648 626 625
3 649 627 626
3 650 628 627
3 651 630 628
3 652 630 653
3 654 629 652
3 655 631 654
3 656 632 655
3 657 633 656
3 658 634 657
3 659 635 658
3 14 636 659
3 660 638 661
3 660 639 637
3 662 640 639
3 663 641 640
3 664 642 641
3 665 644 642
3 666 644 667
3 666 645 643
3 668 646 645
3 669 647 646
3 670 648 647
3 671 649 648
3 672 650 649
3 673 651 650
3 674 653 651
3 675 653 676
3 677 652 675
3 678 654 677
3 679 655 678
3 680 656 679
3 681 657 680
3 682 658 681
3 12 659 682
3 683 661 684
3 683 662 660
3 685 663 662
3 686 664 663
3 687 665 664
3 688 667 665
3 689 667 690
3 689 668 666
3 691 669 668
3 692 670 669
3 693 671 670
3 694 672 671
3 695 673 672
3 696 674 673
3 697 676 674
3 698 676 699
3 700 675 698
3 701 677 700
3 702 678 701
3 703 679 702
3 704 680 703
3 705 681 704
3 10 682 705
3 706 684 707
3 706 685 683
3 708 686 685
3 709 687 686
3 710 688 687
3 711 690 688
3 712 690 713
3 712 691 689
3 714 692 691
3 715 693 692
3 716 694 693
3 717 695 694
3 718 696 695
3 719 697 696
3 720 699 697
3 721 699 722
3 723 698 721
3 724 700 723
3 725 701 724
3 726 702 725
3 727 703 726
3 728 704 727
3 8 705 728
3 729 707 730
3 729 708 706
3 731 709 708
3 732 710 709
3 733 711 710
3 734 713 711
3 735 713 736
3 735 714 712
3 737 715 714
3 738 716 715
3 739 717 716
3 740 718 717
3 741 719 718
3 742 720 719
3 743 722 720
3 744 722 745
3 746 721 744
3 747 723 746
3 748 724 747
3 749 725 748
3 750 726 749
3 751 727 750
3 6 728 751
3 752 730 753
3 752 731 729
3 754 732 731
3 755 733 732
3 756 734 733
3 757 736 734
3 758 736 759
3 758 737 735
3 760 738 737
3 761 739 738
3 762 740 739
3 763 741 740
3 764 742 741
3 765 743 742
3 766 745 743
3 767 745 768
3 769 744 767
3 770 746 769
3 771 747 770
3 772 748 771
3 773 749 772
3 774 750 773
3 4 751 774
3 775 753 776
3 775 754 752
3 777 755 754
3 778 756 755
3 779 757 756
3 780 759 757
3 781 759 782
3 781 760 758
3 783 761 760
3 784 762 761
3 785 763 762
3 786 764 763
3 787 765 764
3 788 766 765
3 789 768 766
3 790 768 791
3 792 767 790
3 793 769 792
3 794 770 793
3 795 771 794
3 796 772 795
3 797 773 796
3 1 774 797
3 63 776 798
3 63 777 775
3 68 778 777
3 70 779 778
3 72 780 779
3 74 782 780
3 75 782 76
3 75 783 781
3 80 784 783
3 82 785 784
3 84 786 785
3 86 787 786
3 88 788 787
3 90 789 788
3 92 791 789
3 93 791 94
3 96 790 93
3 98 792 96
3 100 793 98
3 102 794 100
3 104 795 102
3 106 796 104
3 2 797 106
3 0 3 1
3 3 5 4
3 5 7 6
3 7 9 8
3 9 11 10
3 11 13 12
3 13 15 14
3 15 17 16
3 17 19 18
3 19 21 20
3 21 23 22
3 23 25 24
3 25 27 26
3 27 29 28
3 29 31 30
3 31 799 32
3 32 799 33
3 34 33 35
3 36 35 37
3 38 37 39
3 40 39 41
3 42 41 43
3 44 43 45
3 46 45 47
3 48 47 49
3 50 49 51
3 52 51 53
3 54 53 55
3 56 55 57
3 58 57 59
3 60 59 61
3 0 2 62
3 63 798 64
3 66 68 63
3 67 70 68
3 69 72 70
3 71 74 72
3 73 76 74
3 73 78 75
3 77 80 75
3 79 82 80
3 81 84 82
3 83 86 84
3 85 88 86
3 87 90 88
3 89 92 90
3 91 94 92
3 91 95 93
3 95 97 96
3 97 99 98
3 99 101 100
3 101 103 102
3 103 105 104
3 105 107 106
3 2 106 107
3 108 110 65
3 109 66 65
3 111 67 66
3 112 69 67
3 113 71 69
3 114 73 71
3 114 116 78
3 115 77 78
3 117 79 77
3 118 81 79
3 119 83 81
3 120 85 83
3 121 87 85
3 122 89 87
3 123 91 89
3 123 124 95
3 124 125 97
3 125 126 99
3 126 127 101
3 127 128 103
3 128 129 105
3 129 130 107
3 130 60 62
3 131 133 110
3 132 109 110
3 134 111 109
3 135 112 111
3 136 113 112
3 137 114 113
3 137 139 116
3 138 115 116
3 140 117 115
3 141 118 117
3 142 119 118
3 143 120 119
3 144 121 120
3 145 122 121
3 146 123 122
3 146 147 124
3 147 148 125
3 148 149 126
3 149 150 127
3 150 151 128
3 151 152 129
3 152 153 130
3 153 58 60
3 154 156 133
3 155 132 133
3 157 134 132
3 158 135 134
3 159 136 135
3 160 137 136
3 160 162 139
3 161 138 139
3 163 140 138
3 164 141 140
3 165 142 141
3 166 143 142
3 167 144 143
3 168 145 144
3 169 146 145
3 169 170 147
3 170 171 148
3 171 172 149
3 172 173 150
3 173 174 151
3 174 175 152
3 175 176 153
3 176 56 58
3 177 179 156
3 178 155 156
3 180 157 155
3 181 158 157
3 182 159 158
3 183 160 159
3 183 185 162
3 184 161 162
3 186 163 161
3 187 164 163
3 188 165 164
3 189 166 165
3 190 167 166
3 191 168 167
3 192 169 168
3 192 193 170
3 193 194 171
3 194 195 172
3 195 196 173
3 196 197 174
3 197 198 175
3 198 199 176
3 199 54 56
3 200 202 179
3 201 178 179
3 203 180 178
3 204 181 180
3 205 182 181
3 206 183 182
3 206 208 185
3 207 184 185
3 209 186 184
3 210 187 186
3 211 188 187
3 212 189 188
3 213 190 189
3 214 191 190
3 215 192 191
3 215 216 193
3 216 217 194
3 217 218 195
3 218 219 196
3 219 220 197
3 220 221 198
3 221 222 199
3 222 52 54
3 223 225 202
3 224 201 202
3 226 203 201
3 227 204 203
3 228 205 204
3 229 206 205
3 229 231 208
3 230 207 208
3 232 209 207
3 233 210 209
3 234 211 210
3 235 212 211
3 236 213 212
3 237 214 213
3 238 215 214
3 238 239 216
3 239 240 217
3 240 241 218
3 241 242 219
3 242 243 220
3 243 244 221
3 244 245 222
3 245 50 52
3 246 248 225
3 247 224 225
3 249 226 224
3 250 227 226
3 251 228 227
3 252 229 228
3 252 254 231
3 253 230 231
3 255 232 230
3 256 233 232
3 257 234 233
3 258 235 234
3 259 236 235
3 260 237 236
3 261 238 237
3 261 262 239
3 262 263 240
3 263 264 241
3 264 265 242
3 265 266 243
3 266 267 244
3 267 268 245
3 268 48 50
3 269 271 248
3 270 247 248
3 272 249 247
3 273 250 249
3 274 251 250
3 275 252 251
3 275 277 254
3 276 253 254
3 278 255 253
3 279 256 255
3 280 257 256
3 281 258 257
3 282 259 258
3 283 260 259
3 284 261 260
3 284 285 262
3 285 286 263
3 286 287 264
3 287 288 265
3 288 289 266
3 289 290 267
3 290 291 268
3 291 46 48
3 292 294 271
3 293 270 271
3 295 272 270
3 296 273 272
3 297 274 273
3 298 275 274
3 298 300 277
3 299 276 277
3 301 278 276
3 302 279 278
3 303 280 279
3 304 281 280
3 305 282 281
3 306 283 282
3 307 284 283
3 307 308 285
3 308 309 286
3 309 310 287
3 310 311 288
3 311 312 289
3 312 313 290
3 313 314 291
3 314 44 46
3 315 317 294
3 316 293 294
3 318 295 293
3 319 296 295
3 320 297 296
3 321 298 297
3 321 323 300
3 322 299 300
3 324 301 299
3 325 302 301
3 326 303 302
3 327 304 303
3 328 305 304
3 329 306 305
3 330 307 306
3 330 331 308
3 331 332 309
3 332 333 310
3 333 334 311
3 334 335 312
3 335 336 313
3 336 337 314
3 337 42 44
3 338 340 317
3 339 316 317
3 341 318 316
3 342 319 318
3 343 320 319
3 344 321 320
3 344 346 323
3 345 322 323
3 347 324 322
3 348 325 324
3 349 326 325
3 350 327 326
3 351 328 327
3 352 329 328
3 353 330 329
3 353 354 331
3 354 355 332
3 355 356 333
3 356 357 334
3 357 358 335
3 358 359 336
3 359 360 337
3 360 40 42
3 361 363 340
3 362 339 340
3 364 341 339
3 365 342 341
3 366 343 342
3 367 344 343
3 367 369 346
3 368 345 346
3 370 347 345
3 371 348 347
3 372 349 348
3 373 350 349
3 374 351 350
3 375 352 351
3 376 353 352
3 376 377 354
3 377 378 355
3 378 379 356
3 379 380 357
3 380 381 358
3 381 382 359
3 382 383 360
3 383 38 40
3 384 386 363
3 385 362 363
3 387 364 362
3 388 365 364
3 389 366 365
3 390 367 366
3 390 392 369
3 391 368 369
3 393 370 368
3 394 371 370
3 395 372 371
3 396 373 372
3 397 374 373
3 398 375 374
3 399 376 375
3 399 400 377
3 400 401 378
3 401 402 379
3 402 403 380
3 403 404 381
3 404 405 382
3 405 406 383
3 406 36 38
3 407 409 386
3 408 385 386
3 410 387 385
3 411 388 387
3 412 389 388
3 413 390 389
3 413 415 392
3 414 391 392
3 416 393 391
3 417 394 393
3 418 395 394
3 419 396 395
3 420 397 396
3 421 398 397
3 422 399 398
3 422 423 400
3 423 424 401
3 424 425 402
3 425 426 403
3 426 427 404
3 427 428 405
3 428 429 406
3 429 34 36
3 430 432 409
3 431 408 409
3 433 410 408
3 434 411 410
3 435 412 411
3 436 413 412
3 436 438 415
3 437 414 415
3 439 416 414
3 440 417 416
3 441 418 417
3 442 419 418
3 443 420 419
3 444 421 420
3 445 422 421
3 445 446 423
3 446 447 424
3 447 448 425
3 448 449 426
3 449 450 427
3 450 451 428
3 451 452 429
3 452 32 34
3 453 432 430
3 453 455 431
3 455 456 433
3 456 457 434
3 457 458 435
3 458 460 436
3 459 438 436
3 459 461 437
3 461 462 439
3 462 463 440
3 463 464 441
3 464 465 442
3 465 466 443
3 466 467 444
3 467 469 445
3 468 446 445
3 470 447 446
3 471 448 447
3 472 449 448
3 473 450 449
3 474 451 450
3 475 452 451
3 30 32 452
3 476 453 454
3 476 478 455
3 478 479 456
3 479 480 457
3 480 481 458
3 481 483 460
3 482 459 460
3 482 484 461
3 484 485 462
3 485 486 463
3 486 487 464
3 487 488 465
3 488 489 466
3 489 490 467
3 490 492 469
3 491 468 469
3 493 470 468
3 494 471 470
3 495 472 471
3 496 473 472
3 497 474 473
3 498 475 474
3 28 30 475
3 499 476 477
3 499 501 478
3 501 502 479
3 502 503 480
3 503 504 481
3 504 506 483
3 505 482 483
3 505 507 484
3 507 508 485
3 508 509 486
3 509 510 487
3 510 511 488
3 511 512 489
3 512 513 490
3 513 515 492
3 514 491 492
3 516 493 491
3 517 494 493
3 518 495 494
3 519 496 495
3 520 497 496
3 521 498 497
3 26 28 498
3 522 499 500
3 522 524 501
3 524 525 502
3 525 526 503
3 526 527 504
3 527 529 506
3 528 505 506
3 528 530 507
3 530 531 508
3 531 532 509
3 532 533 510
3 533 534 511
3 534 535 512
3 535 536 513
3 536 538 515
3 537 514 515
3 539 516 514
3 540 517 516
3 541 518 517
3 542 519 518
3 543 520 519
3 544 521 520
3 24 26 521
3 545 522 523
3 545 547 524
3 547 548 525
3 548 549 526
3 549 550 527
3 550 552 529
3 551 528 529
3 551 553 530
3 553 554 531
3 554 555 532
3 555 556 533
3 556 557 534
3 557 558 535
3 558 559 536
3 559 561 538
3 560 537 538
3 562 539 537
3 563 540 539
3 564 541 540
3 565 542 541
3 566 543 542
3 567 544 543
3 22 24 544
3 568 545 546
3 568 570 547
3 570 571 548
3 571 572 549
3 572 573 550
3 573 575 552
3 574 551 552
3 574 576 553
3 576 577 554
3 577 578 555
3 578 579 556
3 579 580 557
3 580 581 558
3 581 582 559
3 582 584 561
3 583 560 561
3 585 562 560
3 586 563 562
3 587 564 563
3 588 565 564
3 589 566 565
3 590 567 566
3 20 22 567
3 591 568 569
3 591 593 570
3 593 594 571
3 594 595 572
3 595 596 573
3 596 598 575
3 597 574 575
3 597 599 576
3 599 600 577
3 600 601 578
3 601 602 579
3 602 603 580
3 603 604 581
3 604 605 582
3 605 607 584
3 606 583 584
3 608 585 583
3 609 586 585
3 610 587 586
3 611 588 587
3 612 589 588
3 613 590 589
3 18 20 590
3 614 591 592
3 614 616 593
3 616 617 594
3 617 618 595
3 618 619 596
3 619 621 598
3 620 597 598
3 620 622 599
3 622 623 600
3 623 624 601
3 624 625 602
3 625 626 603
3 626 627 604
3 627 628 605
3 628 630 607
3 629 606 607
3 631 608 606
3 632 609 608
3 633 610 609
3 634 611 610
3 635 612 611
3 636 613 612
3 16 18 613
3 637 614 615
3 637 639 616
3 639 640 617
3 640 641 618
3 641 642 619
3 642 644 621
3 643 620 621
3 643 645 622
3 645 646 623
3 646 647 624
3 647 648 625
3 648 649 626
3 649 650 627
3 650 651 628
3 651 653 630
3 652 629 630
3 654 631 629
3 655 632 631
3 656 633 632
3 657 634 633
3 658 635 634
3 659 636 635
3 14 16 636
3 660 637 638
3 660 662 639
3 662 663 640
3 663 664 641
3 664 665 642
3 665 667 644
3 666 643 644
3 666 668 645
3 668 669 646
3 669 670 647
3 670 671 648
3 671 672 649
3 672 673 650
3 673 674 651
3 674 676 653
3 675 652 653
3 677 654 652
3 678 655 654
3 679 656 655
3 680 657 656
3 681 658 657
3 682 659 658
3 12 14 659
3 683 660 661
3 683 685 662
3 685 686 663
3 686 687 664
3 687 688 665
3 688 690 667
3 689 666 667
3 689 691 668
3 691 692 669
3 692 693 670
3 693 694 671
3 694 695 672
3 695 696 673
3 696 697 674
3 697 699 676
3 698 675 676
3 700 677 675
3 701 678 677
3 702 679 678
3 703 680 679
3 704 681 680
3 705 682 681
3 10 12 682
3 706 683 684
3 706 708 685
3 708 709 686
3 709 710 687
3 710 711 688
3 711 713 690
3 712 689 690
3 712 714 691
3 714 715 692
3 715 716 693
3 716 717 694
3 717 718 695
3 718 719 696
3 719 720 697
3 720 722 699
3 721 698 699
3 723 700 698
3 724 701 700
3 725 702 701
3 726 703 702
3 727 704 703
3 728 705 704
3 8 10 705
3 729 706 707
3 729 731 708
3 731 732 709
3 732 733 710
3 733 734 711
3 734 736 713
3 735 712 713
3 735 737 714
3 737 738 715
3 738 739 716
3 739 740 717
3 740 741 718
3 741 742 719
3 742 743 720
3 743 745 722
3 744 721 722
3 746 723 721
3 747 724 723
3 748 725 724
3 749 726 725
3 750 727 726
3 751 728 727
3 6 8 728
3 752 729 730
3 752 754 731
3 754 755 732
3 755 756 733
3 756 757 734
3 757 759 736
3 758 735 736
3 758 760 737
3 760 761 738
3 761 762 739
3 762 763 740
3 763 764 741
3 764 765 742
3 765 766 743
3 766 768 745
3 767 744 745
3 769 746 744
3 770 747 746
3 771 748 747
3 772 749 748
3 773 750 749
3 774 751 750
3 4 6 751
3 775 752 753
3 775 777 754
3 777 778 755
3 778 779 756
3 779 780 757
3 780 782 759
3 781 758 759
3 781 783 760
3 783 784 761
3 784 785 762
3 785 786 763
3 786 787 764
3 787 788 765
3 788 789 766
3 789 791 768
3 790 767 768
3 792 769 767
3 793 770 769
3 794 771 770
3 795 772 771
3 796 773 772
3 797 774 773
3 1 4 774
3 63 775 776
3 63 68 777
3 68 70 778
3 70 72 779
3 72 74 780
3 74 76 782
3 75 781 782
3 75 80 783
3 80 82 784
3 82 84 785
3 84 86 786
3 86 88 787
3 88 90 788
3 90 92 789
3 92 94 791
3 93 790 791
3 96 792 790
3 98 793 792
3 100 794 793
3 102 795 794
3 104 796 795
3 106 797 796
3 2 1 797
3 19 17 800
3 57 55 800
3 39 37 800
3 799 31 800
3 17 15 800
3 33 799 800
3 3 0 800
3 47 45 800
3 45 43 800
3 5 3 800
3 59 57 800
3 43 41 800
3 49 47 800
3 31 29 800
3 55 53 800
3 11 9 800
3 25 23 800
3 9 7 800
3 15 13 800
3 41 39 800
3 53 51 800
3 27 25 800
3 35 33 800
3 7 5 800
3 21 19 800
3 0 61 800
3 61 59 800
3 23 21 800
3 13 11 800
3 29 27 800
3 51 49 800
3 37 35 800
3 292 269 801
3 454 430 801
3 753 730 801
3 477 454 801
3 407 384 801
3 246 223 801
3 223 200 801
3 108 64 801
3 131 108 801
3 200 177 801
3 384 361 801
3 546 523 801
3 361 338 801
3 592 569 801
3 798 776 801
3 730 707 801
3 776 753 801
3 154 131 801
3 523 500 801
3 338 315 801
3 500 477 801
3 661 638 801
3 64 798 801
3 707 684 801
3 315 292 801
3 177 154 801
3 684 661 801
3 615 592 801
3 269 246 801
3 638 615 801
3 430 407 801
3 569 546 801
