ply
format ascii 1.0
comment Created by Blender 2.79 (sub 0) - www.blender.org, source file: ''
element vertex 800
property float x
property float y
property float z
element face 768
property list uchar uint vertex_indices
end_header
-1.830592 0.028844 2.344571
-1.837433 0.028844 2.535075
-1.829952 0.104836 2.535301
-1.823115 0.104836 2.344891
-1.807796 0.177908 2.535972
-1.800969 0.177908 2.345838
-1.771816 0.245251 2.537062
-1.765006 0.245251 2.347377
-1.723397 0.304278 2.538529
-1.716609 0.304278 2.349449
-1.664397 0.352720 2.540316
-1.657636 0.352720 2.351972
-1.597085 0.388715 2.542355
-1.590354 0.388715 2.354851
-1.524047 0.410881 2.544568
-1.517350 0.410881 2.357975
-1.448090 0.418366 2.546869
-1.441427 0.418366 2.361225
-1.372133 0.410881 2.549170
-1.365505 0.410881 2.364474
-1.299095 0.388715 2.551383
-1.292500 0.388715 2.367598
-1.231783 0.352720 2.553421
-1.225219 0.352720 2.370477
-1.172783 0.304278 2.555210
-1.166246 0.304278 2.373001
-1.124363 0.245251 2.556676
-1.117848 0.245251 2.375072
-1.088384 0.177908 2.557765
-1.081885 0.177908 2.376610
-1.066228 0.104836 2.558437
-1.059740 0.104836 2.377558
-1.058747 0.028844 2.558664
-1.052262 0.028844 2.377879
-1.066228 -0.047148 2.558437
-1.059740 -0.047147 2.377558
-1.088384 -0.120219 2.557766
-1.081885 -0.120219 2.376610
-1.124363 -0.187562 2.556676
-1.117848 -0.187562 2.375072
-1.172783 -0.246589 2.555210
-1.166246 -0.246589 2.373001
-1.231783 -0.295031 2.553421
-1.225219 -0.295031 2.370477
-1.299095 -0.331027 2.551383
-1.292500 -0.331027 2.367598
-1.372133 -0.353193 2.549170
-1.365505 -0.353192 2.364474
-1.448090 -0.360677 2.546869
-1.441428 -0.360677 2.361225
-1.524047 -0.353193 2.544569
-1.517350 -0.353192 2.357975
-1.597085 -0.331026 2.542355
-1.590355 -0.331026 2.354851
-1.664397 -0.295031 2.540316
-1.657636 -0.295030 2.351972
-1.723397 -0.246589 2.538529
-1.716609 -0.246588 2.349449
-1.771817 -0.187562 2.537062
-1.765006 -0.187562 2.347377
-1.807796 -0.120218 2.535972
-1.800969 -0.120219 2.345839
-1.829952 -0.047147 2.535301
-1.823115 -0.047147 2.344891
1.305620 0.028844 0.022153
1.487534 0.028844 0.021941
1.487515 -0.047147 0.029425
1.305628 -0.047147 0.029638
1.108736 -0.047147 0.030702
1.108661 0.028844 0.023218
0.919109 -0.047147 0.033516
0.918960 0.028844 0.026033
0.728978 -0.047147 0.038307
0.728743 0.028844 0.030827
0.538180 -0.047147 0.045573
0.537843 0.028844 0.038096
0.346594 -0.047147 0.055572
0.346137 0.028844 0.048102
0.153831 -0.047147 0.069344
0.153223 0.028844 0.061884
-0.040406 -0.047147 0.087424
-0.041201 0.028844 0.079982
-0.236865 -0.047147 0.111393
-0.237905 0.028844 0.103981
-0.436922 -0.047147 0.143821
-0.438303 0.028844 0.136466
-0.643415 -0.047147 0.189375
-0.645313 0.028844 0.182135
-0.860937 -0.047147 0.259295
-0.863679 0.028844 0.252331
-1.080063 -0.047147 0.365892
-1.083887 0.028844 0.359459
-1.285316 -0.047147 0.515540
-1.290291 0.028844 0.509948
-1.460106 -0.047147 0.706295
-1.466111 0.028845 0.701828
-1.591709 -0.047147 0.925303
-1.598465 0.028845 0.922083
-1.677501 -0.047147 1.153606
-1.684689 0.028844 1.151518
-1.727465 -0.047147 1.367820
-1.734818 0.028844 1.366420
-1.759952 -0.047147 1.569785
-1.767367 0.028844 1.568766
-1.783287 -0.047147 1.766824
-1.790732 0.028844 1.766061
-1.800556 -0.047147 1.961071
-1.808018 0.028844 1.960495
-1.813547 -0.047147 2.153595
-1.821018 0.028844 2.153162
1.487458 -0.120219 0.051591
1.305652 -0.120219 0.051803
1.108955 -0.120219 0.052867
0.919551 -0.120219 0.055678
0.729676 -0.120219 0.060462
0.539179 -0.120219 0.067716
0.347950 -0.120219 0.077697
0.155630 -0.120218 0.091436
-0.038053 -0.120219 0.109464
-0.233786 -0.120219 0.133344
-0.432831 -0.120219 0.165606
-0.637793 -0.120218 0.210816
-0.852819 -0.120219 0.279921
-1.068736 -0.120219 0.384945
-1.270584 -0.120219 0.532102
-1.442322 -0.120218 0.719526
-1.571699 -0.120218 0.934839
-1.656216 -0.120219 1.159790
-1.705690 -0.120219 1.371965
-1.737993 -0.120218 1.572804
-1.761236 -0.120219 1.769086
-1.778457 -0.120219 1.962782
-1.791418 -0.120218 2.154882
1.487366 -0.187562 0.087587
1.305691 -0.187562 0.087799
1.109312 -0.187562 0.088861
0.920269 -0.187562 0.091666
0.730808 -0.187562 0.096440
0.540801 -0.187562 0.103675
0.350152 -0.187562 0.113625
0.158551 -0.187562 0.127313
-0.034231 -0.187562 0.145257
-0.228785 -0.187562 0.168990
-0.426187 -0.187562 0.200984
-0.628665 -0.187562 0.245635
-0.839636 -0.187562 0.313415
-1.050341 -0.187562 0.415886
-1.246660 -0.187562 0.558996
-1.413442 -0.187561 0.741012
-1.539206 -0.187561 0.950326
-1.621649 -0.187562 1.169832
-1.670330 -0.187562 1.378697
-1.702332 -0.187562 1.577706
-1.725428 -0.187562 1.772758
-1.742568 -0.187562 1.965561
-1.755483 -0.187562 2.156970
1.487243 -0.246589 0.136028
1.305744 -0.246589 0.136241
1.109792 -0.246589 0.137300
0.921235 -0.246589 0.140098
0.732333 -0.246589 0.144858
0.542984 -0.246589 0.152068
0.353115 -0.246589 0.161976
0.162483 -0.246588 0.175595
-0.029088 -0.246589 0.193425
-0.222055 -0.246589 0.216962
-0.417247 -0.246589 0.248594
-0.616380 -0.246588 0.292493
-0.821894 -0.246589 0.358491
-1.025586 -0.246589 0.457525
-1.214464 -0.246589 0.595191
-1.374577 -0.246588 0.769927
-1.495476 -0.246588 0.971168
-1.575131 -0.246588 1.183348
-1.622743 -0.246589 1.387756
-1.654342 -0.246589 1.584303
-1.677239 -0.246589 1.777700
-1.694271 -0.246589 1.969300
-1.707123 -0.246589 2.159779
1.487092 -0.295031 0.195055
1.305808 -0.295031 0.195267
1.110378 -0.295031 0.196324
0.922411 -0.295031 0.199113
0.734190 -0.295031 0.203856
0.545643 -0.295031 0.211035
0.356726 -0.295031 0.220892
0.167274 -0.295030 0.234427
-0.022822 -0.295031 0.252118
-0.213855 -0.295031 0.275417
-0.406353 -0.295030 0.306606
-0.601411 -0.295030 0.349590
-0.800276 -0.295031 0.413417
-0.995423 -0.295031 0.508263
-1.175232 -0.295030 0.639293
-1.327219 -0.295030 0.805160
-1.442192 -0.295030 0.996563
-1.518448 -0.295030 1.199816
-1.564758 -0.295031 1.398795
-1.595865 -0.295030 1.592341
-1.618521 -0.295031 1.783722
-1.635420 -0.295031 1.973856
-1.648196 -0.295031 2.163203
1.486920 -0.331026 0.262398
1.305881 -0.331027 0.262611
1.111045 -0.331026 0.263664
0.923754 -0.331026 0.266443
0.736309 -0.331026 0.271165
0.548678 -0.331026 0.278309
0.360845 -0.331026 0.288109
0.172740 -0.331026 0.301548
-0.015672 -0.331026 0.319080
-0.204499 -0.331027 0.342107
-0.393924 -0.331026 0.372792
-0.584332 -0.331026 0.414732
-0.775611 -0.331027 0.476081
-0.961009 -0.331026 0.566149
-1.130474 -0.331026 0.689610
-1.273188 -0.331026 0.845357
-1.381401 -0.331026 1.025537
-1.453779 -0.331026 1.218604
-1.498602 -0.331026 1.411390
-1.529149 -0.331026 1.601512
-1.551529 -0.331026 1.790593
-1.568278 -0.331027 1.979054
-1.580966 -0.331026 2.167108
1.486733 -0.353192 0.335469
1.305960 -0.353193 0.335682
1.111769 -0.353193 0.336732
0.925211 -0.353192 0.339500
0.738609 -0.353192 0.344201
0.551971 -0.353193 0.351306
0.365315 -0.353193 0.361044
0.178670 -0.353192 0.374378
-0.007915 -0.353192 0.391739
-0.194347 -0.353193 0.414469
-0.380438 -0.353192 0.444608
-0.565801 -0.353192 0.485415
-0.748849 -0.353193 0.544075
-0.923668 -0.353193 0.628959
-1.081908 -0.353192 0.744207
-1.214562 -0.353192 0.888973
-1.315438 -0.353192 1.056975
-1.383609 -0.353192 1.238991
-1.426820 -0.353192 1.425056
-1.456759 -0.353192 1.611462
-1.478839 -0.353193 1.798048
-1.495425 -0.353193 1.984694
-1.508017 -0.353193 2.171346
1.486539 -0.360677 0.411461
1.306042 -0.360677 0.411674
1.112522 -0.360677 0.412720
0.926726 -0.360677 0.415477
0.741000 -0.360677 0.420155
0.555395 -0.360677 0.427221
0.369963 -0.360677 0.436893
0.184838 -0.360677 0.450120
0.000153 -0.360677 0.467301
-0.183790 -0.360677 0.489725
-0.366413 -0.360677 0.519295
-0.546530 -0.360677 0.558922
-0.721017 -0.360677 0.614787
-0.884835 -0.360677 0.694279
-1.031401 -0.360677 0.800985
-1.153592 -0.360677 0.934333
-1.246839 -0.360677 1.089670
-1.310634 -0.360677 1.260192
-1.352169 -0.360677 1.439267
-1.381475 -0.360677 1.621811
-1.403243 -0.360677 1.805801
-1.419659 -0.360678 1.990559
-1.432153 -0.360677 2.175754
1.486345 -0.353193 0.487452
1.306125 -0.353193 0.487666
1.113276 -0.353193 0.488708
0.928241 -0.353193 0.491454
0.743391 -0.353192 0.496109
0.558820 -0.353193 0.503136
0.374612 -0.353193 0.512743
0.191005 -0.353192 0.525861
0.008220 -0.353193 0.542864
-0.173232 -0.353193 0.564980
-0.352387 -0.353192 0.593982
-0.527258 -0.353193 0.632430
-0.693185 -0.353193 0.685498
-0.846002 -0.353193 0.759600
-0.980894 -0.353193 0.857764
-1.092623 -0.353192 0.979693
-1.178240 -0.353192 1.122365
-1.237660 -0.353192 1.281394
-1.277518 -0.353193 1.453479
-1.306191 -0.353192 1.632160
-1.327648 -0.353193 1.813554
-1.343894 -0.353193 1.996425
-1.356289 -0.353193 2.180161
1.486159 -0.331027 0.560524
1.306204 -0.331027 0.560737
1.114000 -0.331027 0.561776
0.929698 -0.331027 0.564511
0.745691 -0.331027 0.569144
0.562112 -0.331027 0.576133
0.379081 -0.331027 0.585678
0.196936 -0.331027 0.598691
0.015978 -0.331027 0.615522
-0.163081 -0.331027 0.637342
-0.338901 -0.331027 0.665798
-0.508727 -0.331027 0.703112
-0.666422 -0.331027 0.753493
-0.808661 -0.331027 0.822410
-0.932328 -0.331027 0.912361
-1.033996 -0.331027 1.023309
-1.112277 -0.331026 1.153803
-1.167490 -0.331027 1.301780
-1.205736 -0.331027 1.467145
-1.233800 -0.331027 1.642111
-1.254958 -0.331027 1.821008
-1.271041 -0.331027 2.002065
-1.283341 -0.331027 2.184399
1.485987 -0.295031 0.627867
1.306277 -0.295031 0.628081
1.114668 -0.295031 0.629116
0.931041 -0.295031 0.631840
0.747809 -0.295031 0.636454
0.565147 -0.295031 0.643408
0.383200 -0.295031 0.652895
0.202402 -0.295031 0.665812
0.023127 -0.295031 0.682485
-0.153725 -0.295031 0.704033
-0.326472 -0.295031 0.731984
-0.491648 -0.295031 0.768254
-0.641758 -0.295031 0.816157
-0.774247 -0.295031 0.880296
-0.887569 -0.295031 0.962677
-0.979966 -0.295031 1.063506
-1.051486 -0.295031 1.182777
-1.102821 -0.295031 1.320569
-1.139580 -0.295031 1.479739
-1.167084 -0.295031 1.651281
-1.187966 -0.295031 1.827879
-1.203898 -0.295031 2.007263
-1.216111 -0.295031 2.188305
1.485836 -0.246589 0.686893
1.306341 -0.246589 0.687107
1.115253 -0.246589 0.688140
0.932217 -0.246589 0.690856
0.749667 -0.246589 0.695452
0.567807 -0.246589 0.702375
0.386811 -0.246589 0.711811
0.207193 -0.246589 0.724644
0.029394 -0.246589 0.741178
-0.145524 -0.246589 0.762487
-0.315578 -0.246589 0.789997
-0.476679 -0.246589 0.825351
-0.620139 -0.246589 0.871082
-0.744083 -0.246589 0.931034
-0.848338 -0.246589 1.006780
-0.932608 -0.246589 1.098739
-0.998201 -0.246589 1.208173
-1.046138 -0.246589 1.337037
-1.081595 -0.246589 1.490778
-1.108607 -0.246589 1.659320
-1.129247 -0.246589 1.833901
-1.145047 -0.246589 2.011818
-1.157183 -0.246589 2.191729
1.485712 -0.187562 0.735335
1.306394 -0.187563 0.735549
1.115733 -0.187562 0.736579
0.933183 -0.187562 0.739288
0.751191 -0.187562 0.743870
0.569989 -0.187562 0.750768
0.389774 -0.187562 0.760163
0.211124 -0.187562 0.772927
0.034537 -0.187562 0.789346
-0.138794 -0.187563 0.810459
-0.306638 -0.187562 0.837607
-0.464394 -0.187562 0.872210
-0.602398 -0.187562 0.916158
-0.719328 -0.187562 0.972673
-0.816142 -0.187562 1.042974
-0.893742 -0.187562 1.127654
-0.954472 -0.187562 1.229014
-0.999619 -0.187562 1.350552
-1.034008 -0.187562 1.499838
-1.060616 -0.187562 1.665916
-1.081058 -0.187562 1.838843
-1.096750 -0.187563 2.015558
-1.108823 -0.187562 2.194539
1.485620 -0.120219 0.771331
1.306433 -0.120219 0.771545
1.116090 -0.120219 0.772573
0.933901 -0.120219 0.775276
0.752324 -0.120219 0.779848
0.571612 -0.120219 0.786727
0.391976 -0.120219 0.796091
0.214046 -0.120219 0.808804
0.038358 -0.120219 0.825139
-0.133794 -0.120219 0.846106
-0.299994 -0.120219 0.872984
-0.455265 -0.120219 0.907028
-0.589214 -0.120219 0.949653
-0.700934 -0.120219 1.003614
-0.792218 -0.120219 1.069869
-0.864862 -0.120219 1.149140
-0.921978 -0.120219 1.244501
-0.965053 -0.120219 1.360595
-0.998648 -0.120219 1.506570
-1.024956 -0.120219 1.670818
-1.045250 -0.120219 1.842516
-1.060862 -0.120219 2.018336
-1.072888 -0.120219 2.196626
1.485564 -0.047148 0.793497
1.306457 -0.047148 0.793711
1.116309 -0.047148 0.794739
0.934343 -0.047148 0.797438
0.753021 -0.047147 0.802003
0.572611 -0.047148 0.808870
0.393332 -0.047148 0.818215
0.215845 -0.047147 0.830897
0.040712 -0.047148 0.847179
-0.130714 -0.047148 0.868057
-0.295903 -0.047148 0.894769
-0.449644 -0.047148 0.928470
-0.581096 -0.047148 0.970279
-0.689607 -0.047148 1.022667
-0.777485 -0.047148 1.086431
-0.847078 -0.047148 1.162371
-0.901969 -0.047147 1.254038
-0.943767 -0.047148 1.366779
-0.976873 -0.047148 1.510715
-1.002996 -0.047148 1.673837
-1.023200 -0.047148 1.844777
-1.038762 -0.047148 2.020047
-1.050759 -0.047147 2.197912
1.485544 0.028844 0.800981
1.306465 0.028844 0.801196
1.116384 0.028844 0.802222
0.934492 0.028844 0.804921
0.753257 0.028844 0.809484
0.572948 0.028844 0.816347
0.393790 0.028844 0.825686
0.216452 0.028844 0.838356
0.041506 0.028844 0.854622
-0.129674 0.028844 0.875469
-0.294522 0.028844 0.902125
-0.447746 0.028844 0.935710
-0.578355 0.028844 0.977243
-0.685782 0.028844 1.029100
-0.772511 0.028844 1.092023
-0.841073 0.028844 1.166839
-0.895212 0.028844 1.257258
-0.936580 0.028844 1.368867
-0.969520 0.028844 1.512115
-0.995582 0.028844 1.674856
-1.015754 0.028844 1.845541
-1.031300 0.028844 2.020625
-1.043287 0.028844 2.198346
1.485564 0.104836 0.793497
1.306457 0.104836 0.793711
1.116309 0.104836 0.794739
0.934343 0.104836 0.797438
0.753021 0.104836 0.802003
0.572611 0.104836 0.808870
0.393332 0.104836 0.818215
0.215845 0.104836 0.830896
0.040711 0.104836 0.847180
-0.130714 0.104836 0.868057
-0.295903 0.104836 0.894769
-0.449644 0.104836 0.928470
-0.581096 0.104836 0.970279
-0.689607 0.104836 1.022667
-0.777485 0.104836 1.086431
-0.847078 0.104836 1.162371
-0.901969 0.104836 1.254038
-0.943767 0.104836 1.366779
-0.976873 0.104836 1.510715
-1.002996 0.104836 1.673837
-1.023200 0.104836 1.844777
-1.038762 0.104836 2.020047
-1.050759 0.104836 2.197912
1.485620 0.177908 0.771331
1.306433 0.177908 0.771545
1.116090 0.177908 0.772573
0.933901 0.177908 0.775276
0.752324 0.177908 0.779848
0.571612 0.177908 0.786727
0.391976 0.177908 0.796091
0.214046 0.177908 0.808804
0.038358 0.177908 0.825139
-0.133794 0.177908 0.846106
-0.299994 0.177908 0.872984
-0.455265 0.177908 0.907029
-0.589214 0.177908 0.949653
-0.700934 0.177908 1.003614
-0.792218 0.177908 1.069870
-0.864862 0.177908 1.149140
-0.921978 0.177908 1.244501
-0.965053 0.177908 1.360595
-0.998647 0.177908 1.506570
-1.024956 0.177908 1.670818
-1.045250 0.177908 1.842515
-1.060862 0.177907 2.018336
-1.072888 0.177908 2.196626
1.485712 0.245251 0.735335
1.306394 0.245251 0.735549
1.115733 0.245251 0.736580
0.933183 0.245251 0.739288
0.751191 0.245251 0.743870
0.569989 0.245251 0.750768
0.389774 0.245251 0.760163
0.211124 0.245251 0.772927
0.034537 0.245251 0.789347
-0.138794 0.245251 0.810459
-0.306638 0.245251 0.837607
-0.464394 0.245251 0.872210
-0.602398 0.245251 0.916158
-0.719328 0.245251 0.972673
-0.816141 0.245251 1.042975
-0.893742 0.245251 1.127655
-0.954472 0.245251 1.229014
-0.999619 0.245251 1.350552
-1.034008 0.245251 1.499838
-1.060616 0.245251 1.665916
-1.081058 0.245251 1.838843
-1.096750 0.245251 2.015558
-1.108823 0.245251 2.194539
1.485836 0.304278 0.686893
1.306341 0.304278 0.687107
1.115253 0.304278 0.688140
0.932217 0.304278 0.690856
0.749667 0.304278 0.695452
0.567807 0.304278 0.702375
0.386811 0.304277 0.711811
0.207193 0.304278 0.724644
0.029394 0.304278 0.741178
-0.145524 0.304277 0.762487
-0.315578 0.304278 0.789997
-0.476679 0.304278 0.825351
-0.620139 0.304278 0.871082
-0.744083 0.304278 0.931034
-0.848338 0.304278 1.006780
-0.932607 0.304278 1.098739
-0.998201 0.304278 1.208173
-1.046138 0.304278 1.337037
-1.081595 0.304278 1.490779
-1.108607 0.304278 1.659320
-1.129247 0.304278 1.833901
-1.145047 0.304278 2.011818
-1.157183 0.304278 2.191728
1.485986 0.352720 0.627867
1.306277 0.352720 0.628081
1.114668 0.352720 0.629116
0.931041 0.352720 0.631841
0.747809 0.352720 0.636455
0.565147 0.352720 0.643408
0.383200 0.352720 0.652895
0.202402 0.352720 0.665812
0.023128 0.352720 0.682485
-0.153725 0.352719 0.704033
-0.326472 0.352720 0.731984
-0.491648 0.352720 0.768254
-0.641758 0.352720 0.816157
-0.774247 0.352720 0.880296
-0.887569 0.352720 0.962677
-0.979966 0.352720 1.063506
-1.051486 0.352720 1.182777
-1.102821 0.352720 1.320569
-1.139580 0.352720 1.479739
-1.167084 0.352720 1.651281
-1.187966 0.352720 1.827879
-1.203898 0.352719 2.007263
-1.216111 0.352720 2.188305
1.486159 0.388715 0.560524
1.306204 0.388715 0.560738
1.114000 0.388715 0.561776
0.929698 0.388715 0.564511
0.745690 0.388715 0.569145
0.562112 0.388715 0.576133
0.379081 0.388715 0.585678
0.196936 0.388715 0.598691
0.015978 0.388715 0.615523
-0.163081 0.388715 0.637343
-0.338901 0.388715 0.665798
-0.508727 0.388715 0.703113
-0.666422 0.388715 0.753493
-0.808661 0.388715 0.822410
-0.932328 0.388715 0.912361
-1.033996 0.388715 1.023309
-1.112277 0.388715 1.153803
-1.167490 0.388715 1.301780
-1.205736 0.388715 1.467145
-1.233800 0.388715 1.642111
-1.254957 0.388715 1.821008
-1.271040 0.388715 2.002065
-1.283340 0.388715 2.184399
1.486345 0.410881 0.487453
1.306125 0.410881 0.487666
1.113276 0.410881 0.488708
0.928241 0.410881 0.491454
0.743391 0.410881 0.496109
0.558820 0.410881 0.503136
0.374611 0.410881 0.512743
0.191005 0.410881 0.525861
0.008220 0.410881 0.542864
-0.173232 0.410881 0.564980
-0.352387 0.410881 0.593982
-0.527258 0.410881 0.632430
-0.693185 0.410881 0.685498
-0.846001 0.410881 0.759600
-0.980894 0.410881 0.857764
-1.092623 0.410881 0.979693
-1.178240 0.410881 1.122365
-1.237660 0.410881 1.281394
-1.277518 0.410881 1.453479
-1.306190 0.410881 1.632160
-1.327648 0.410881 1.813554
-1.343894 0.410881 1.996425
-1.356289 0.410881 2.180161
1.486539 0.418366 0.411461
1.306042 0.418366 0.411674
1.112522 0.418366 0.412720
0.926726 0.418366 0.415477
0.741000 0.418366 0.420155
0.555395 0.418366 0.427222
0.369963 0.418366 0.436894
0.184838 0.418366 0.450120
0.000153 0.418366 0.467302
-0.183790 0.418366 0.489725
-0.366413 0.418366 0.519295
-0.546529 0.418366 0.558922
-0.721017 0.418366 0.614787
-0.884835 0.418366 0.694280
-1.031401 0.418366 0.800986
-1.153592 0.418366 0.934333
-1.246839 0.418366 1.089670
-1.310634 0.418366 1.260192
-1.352169 0.418366 1.439267
-1.381474 0.418366 1.621811
-1.403243 0.418366 1.805801
-1.419659 0.418366 1.990559
-1.432153 0.418366 2.175754
1.486733 0.410881 0.335469
1.305960 0.410881 0.335682
1.111769 0.410881 0.336732
0.925211 0.410881 0.339500
0.738609 0.410881 0.344201
0.551971 0.410881 0.351307
0.365315 0.410881 0.361044
0.178670 0.410881 0.374379
-0.007915 0.410881 0.391739
-0.194347 0.410881 0.414470
-0.380438 0.410881 0.444609
-0.565801 0.410881 0.485415
-0.748849 0.410881 0.544075
-0.923668 0.410881 0.628959
-1.081908 0.410881 0.744207
-1.214561 0.410881 0.888974
-1.315438 0.410881 1.056976
-1.383609 0.410881 1.238991
-1.426820 0.410881 1.425056
-1.456758 0.410881 1.611463
-1.478838 0.410881 1.798048
-1.495424 0.410881 1.984694
-1.508017 0.410881 2.171346
1.486920 0.388715 0.262398
1.305881 0.388715 0.262611
1.111045 0.388715 0.263664
0.923754 0.388715 0.266443
0.736309 0.388715 0.271166
0.548678 0.388715 0.278310
0.360845 0.388715 0.288110
0.172739 0.388715 0.301548
-0.015672 0.388715 0.319081
-0.204499 0.388715 0.342107
-0.393924 0.388715 0.372793
-0.584332 0.388715 0.414732
-0.775611 0.388715 0.476081
-0.961009 0.388715 0.566149
-1.130474 0.388715 0.689610
-1.273188 0.388715 0.845357
-1.381400 0.388715 1.025537
-1.453779 0.388715 1.218604
-1.498602 0.388715 1.411390
-1.529149 0.388715 1.601512
-1.551529 0.388715 1.790593
-1.568278 0.388715 1.979054
-1.580966 0.388715 2.167108
1.487092 0.352720 0.195055
1.305808 0.352720 0.195268
1.110378 0.352720 0.196324
0.922411 0.352720 0.199114
0.734190 0.352720 0.203856
0.545643 0.352720 0.211035
0.356726 0.352720 0.220893
0.167274 0.352720 0.234427
-0.022822 0.352720 0.252118
-0.213855 0.352720 0.275417
-0.406353 0.352720 0.306607
-0.601410 0.352720 0.349591
-0.800275 0.352720 0.413417
-0.995422 0.352720 0.508263
-1.175232 0.352720 0.639294
-1.327218 0.352720 0.805160
-1.442192 0.352720 0.996564
-1.518448 0.352720 1.199816
-1.564757 0.352720 1.398795
-1.595865 0.352720 1.592341
-1.618520 0.352720 1.783722
-1.635420 0.352719 1.973855
-1.648195 0.352720 2.163202
1.487243 0.304278 0.136029
1.305743 0.304277 0.136241
1.109792 0.304278 0.137301
0.921234 0.304278 0.140099
0.732333 0.304278 0.144858
0.542984 0.304278 0.152068
0.353115 0.304278 0.161976
0.162483 0.304278 0.175596
-0.029088 0.304278 0.193425
-0.222055 0.304277 0.216963
-0.417247 0.304278 0.248594
-0.616380 0.304278 0.292494
-0.821894 0.304278 0.358492
-1.025586 0.304278 0.457525
-1.214463 0.304278 0.595191
-1.374576 0.304278 0.769927
-1.495476 0.304278 0.971168
-1.575131 0.304278 1.183348
-1.622742 0.304278 1.387756
-1.654342 0.304278 1.584303
-1.677239 0.304278 1.777700
-1.694271 0.304277 1.969300
-1.707122 0.304278 2.159779
1.487366 0.245251 0.087587
1.305691 0.245251 0.087799
1.109312 0.245251 0.088861
0.920269 0.245251 0.091666
0.730808 0.245251 0.096441
0.540801 0.245251 0.103675
0.350152 0.245251 0.113625
0.158551 0.245251 0.127313
-0.034231 0.245251 0.145257
-0.228785 0.245251 0.168990
-0.426187 0.245251 0.200984
-0.628665 0.245251 0.245635
-0.839636 0.245251 0.313416
-1.050341 0.245251 0.415886
-1.246660 0.245251 0.558997
-1.413442 0.245251 0.741012
-1.539206 0.245251 0.950326
-1.621649 0.245251 1.169833
-1.670330 0.245251 1.378697
-1.702332 0.245251 1.577706
-1.725428 0.245251 1.772758
-1.742568 0.245251 1.965561
-1.755483 0.245251 2.156970
1.487458 0.177908 0.051591
1.305652 0.177908 0.051804
1.108955 0.177908 0.052867
0.919551 0.177908 0.055678
0.729676 0.177908 0.060463
0.539179 0.177908 0.067716
0.347950 0.177908 0.077697
0.155630 0.177908 0.091437
-0.038053 0.177908 0.109465
-0.233786 0.177908 0.133344
-0.432831 0.177908 0.165607
-0.637793 0.177908 0.210816
-0.852819 0.177908 0.279921
-1.068735 0.177908 0.384946
-1.270584 0.177908 0.532102
-1.442322 0.177908 0.719526
-1.571699 0.177908 0.934839
-1.656215 0.177908 1.159790
-1.705690 0.177908 1.371965
-1.737993 0.177908 1.572804
-1.761236 0.177908 1.769086
-1.778456 0.177907 1.962782
-1.791418 0.177908 2.154881
1.487515 0.104836 0.029425
1.305628 0.104836 0.029638
1.108736 0.104836 0.030702
0.919109 0.104836 0.033516
0.728978 0.104836 0.038308
0.538180 0.104836 0.045573
0.346594 0.104836 0.055573
0.153831 0.104836 0.069344
-0.040406 0.104836 0.087424
-0.236865 0.104836 0.111393
-0.436922 0.104836 0.143821
-0.643415 0.104836 0.189375
-0.860937 0.104836 0.259295
-1.080063 0.104836 0.365892
-1.285316 0.104836 0.515540
-1.460106 0.104836 0.706295
-1.591709 0.104836 0.925303
-1.677501 0.104836 1.153606
-1.727465 0.104836 1.367820
-1.759952 0.104836 1.569785
-1.783286 0.104836 1.766824
-1.800556 0.104836 1.961071
-1.813547 0.104836 2.153595
4 0 1 2 3
4 3 2 4 5
4 5 4 6 7
4 7 6 8 9
4 9 8 10 11
4 11 10 12 13
4 13 12 14 15
4 15 14 16 17
4 17 16 18 19
4 19 18 20 21
4 21 20 22 23
4 23 22 24 25
4 25 24 26 27
4 27 26 28 29
4 29 28 30 31
4 31 30 32 33
4 33 32 34 35
4 35 34 36 37
4 37 36 38 39
4 39 38 40 41
4 41 40 42 43
4 43 42 44 45
4 45 44 46 47
4 47 46 48 49
4 49 48 50 51
4 51 50 52 53
4 53 52 54 55
4 55 54 56 57
4 57 56 58 59
4 59 58 60 61
4 61 60 62 63
4 63 62 1 0
4 64 65 66 67
4 67 68 69 64
4 68 70 71 69
4 70 72 73 71
4 72 74 75 73
4 74 76 77 75
4 76 78 79 77
4 78 80 81 79
4 80 82 83 81
4 82 84 85 83
4 84 86 87 85
4 86 88 89 87
4 88 90 91 89
4 90 92 93 91
4 92 94 95 93
4 94 96 97 95
4 96 98 99 97
4 98 100 101 99
4 100 102 103 101
4 102 104 105 103
4 104 106 107 105
4 106 108 109 107
4 108 63 0 109
4 110 111 67 66
4 111 112 68 67
4 112 113 70 68
4 113 114 72 70
4 114 115 74 72
4 115 116 76 74
4 116 117 78 76
4 117 118 80 78
4 118 119 82 80
4 119 120 84 82
4 120 121 86 84
4 121 122 88 86
4 122 123 90 88
4 123 124 92 90
4 124 125 94 92
4 125 126 96 94
4 126 127 98 96
4 127 128 100 98
4 128 129 102 100
4 129 130 104 102
4 130 131 106 104
4 131 132 108 106
4 132 61 63 108
4 133 134 111 110
4 134 135 112 111
4 135 136 113 112
4 136 137 114 113
4 137 138 115 114
4 138 139 116 115
4 139 140 117 116
4 140 141 118 117
4 141 142 119 118
4 142 143 120 119
4 143 144 121 120
4 144 145 122 121
4 145 146 123 122
4 146 147 124 123
4 147 148 125 124
4 148 149 126 125
4 149 150 127 126
4 150 151 128 127
4 151 152 129 128
4 152 153 130 129
4 153 154 131 130
4 154 155 132 131
4 155 59 61 132
4 156 157 134 133
4 157 158 135 134
4 158 159 136 135
4 159 160 137 136
4 160 161 138 137
4 161 162 139 138
4 162 163 140 139
4 163 164 141 140
4 164 165 142 141
4 165 166 143 142
4 166 167 144 143
4 167 168 145 144
4 168 169 146 145
4 169 170 147 146
4 170 171 148 147
4 171 172 149 148
4 172 173 150 149
4 173 174 151 150
4 174 175 152 151
4 175 176 153 152
4 176 177 154 153
4 177 178 155 154
4 178 57 59 155
4 179 180 157 156
4 180 181 158 157
4 181 182 159 158
4 182 183 160 159
4 183 184 161 160
4 184 185 162 161
4 185 186 163 162
4 186 187 164 163
4 187 188 165 164
4 188 189 166 165
4 189 190 167 166
4 190 191 168 167
4 191 192 169 168
4 192 193 170 169
4 193 194 171 170
4 194 195 172 171
4 195 196 173 172
4 196 197 174 173
4 197 198 175 174
4 198 199 176 175
4 199 200 177 176
4 200 201 178 177
4 201 55 57 178
4 202 203 180 179
4 203 204 181 180
4 204 205 182 181
4 205 206 183 182
4 206 207 184 183
4 207 208 185 184
4 208 209 186 185
4 209 210 187 186
4 210 211 188 187
4 211 212 189 188
4 212 213 190 189
4 213 214 191 190
4 214 215 192 191
4 215 216 193 192
4 216 217 194 193
4 217 218 195 194
4 218 219 196 195
4 219 220 197 196
4 220 221 198 197
4 221 222 199 198
4 222 223 200 199
4 223 224 201 200
4 224 53 55 201
4 225 226 203 202
4 226 227 204 203
4 227 228 205 204
4 228 229 206 205
4 229 230 207 206
4 230 231 208 207
4 231 232 209 208
4 232 233 210 209
4 233 234 211 210
4 234 235 212 211
4 235 236 213 212
4 236 237 214 213
4 237 238 215 214
4 238 239 216 215
4 239 240 217 216
4 240 241 218 217
4 241 242 219 218
4 242 243 220 219
4 243 244 221 220
4 244 245 222 221
4 245 246 223 222
4 246 247 224 223
4 247 51 53 224
4 248 249 226 225
4 249 250 227 226
4 250 251 228 227
4 251 252 229 228
4 252 253 230 229
4 253 254 231 230
4 254 255 232 231
4 255 256 233 232
4 256 257 234 233
4 257 258 235 234
4 258 259 236 235
4 259 260 237 236
4 260 261 238 237
4 261 262 239 238
4 262 263 240 239
4 263 264 241 240
4 264 265 242 241
4 265 266 243 242
4 266 267 244 243
4 267 268 245 244
4 268 269 246 245
4 269 270 247 246
4 270 49 51 247
4 271 272 249 248
4 272 273 250 249
4 273 274 251 250
4 274 275 252 251
4 275 276 253 252
4 276 277 254 253
4 277 278 255 254
4 278 279 256 255
4 279 280 257 256
4 280 281 258 257
4 281 282 259 258
4 282 283 260 259
4 283 284 261 260
4 284 285 262 261
4 285 286 263 262
4 286 287 264 263
4 287 288 265 264
4 288 289 266 265
4 289 290 267 266
4 290 291 268 267
4 291 292 269 268
4 292 293 270 269
4 293 47 49 270
4 294 295 272 271
4 295 296 273 272
4 296 297 274 273
4 297 298 275 274
4 298 299 276 275
4 299 300 277 276
4 300 301 278 277
4 301 302 279 278
4 302 303 280 279
4 303 304 281 280
4 304 305 282 281
4 305 306 283 282
4 306 307 284 283
4 307 308 285 284
4 308 309 286 285
4 309 310 287 286
4 310 311 288 287
4 311 312 289 288
4 312 313 290 289
4 313 314 291 290
4 314 315 292 291
4 315 316 293 292
4 316 45 47 293
4 317 318 295 294
4 318 319 296 295
4 319 320 297 296
4 320 321 298 297
4 321 322 299 298
4 322 323 300 299
4 323 324 301 300
4 324 325 302 301
4 325 326 303 302
4 326 327 304 303
4 327 328 305 304
4 328 329 306 305
4 329 330 307 306
4 330 331 308 307
4 331 332 309 308
4 332 333 310 309
4 333 334 311 310
4 334 335 312 311
4 335 336 313 312
4 336 337 314 313
4 337 338 315 314
4 338 339 316 315
4 339 43 45 316
4 340 341 318 317
4 341 342 319 318
4 342 343 320 319
4 343 344 321 320
4 344 345 322 321
4 345 346 323 322
4 346 347 324 323
4 347 348 325 324
4 348 349 326 325
4 349 350 327 326
4 350 351 328 327
4 351 352 329 328
4 352 353 330 329
4 353 354 331 330
4 354 355 332 331
4 355 356 333 332
4 356 357 334 333
4 357 358 335 334
4 358 359 336 335
4 359 360 337 336
4 360 361 338 337
4 361 362 339 338
4 362 41 43 339
4 363 364 341 340
4 364 365 342 341
4 365 366 343 342
4 366 367 344 343
4 367 368 345 344
4 368 369 346 345
4 369 370 347 346
4 370 371 348 347
4 371 372 349 348
4 372 373 350 349
4 373 374 351 350
4 374 375 352 351
4 375 376 353 352
4 376 377 354 353
4 377 378 355 354
4 378 379 356 355
4 379 380 357 356
4 380 381 358 357
4 381 382 359 358
4 382 383 360 359
4 383 384 361 360
4 384 385 362 361
4 385 39 41 362
4 386 387 364 363
4 387 388 365 364
4 388 389 366 365
4 389 390 367 366
4 390 391 368 367
4 391 392 369 368
4 392 393 370 369
4 393 394 371 370
4 394 395 372 371
4 395 396 373 372
4 396 397 374 373
4 397 398 375 374
4 398 399 376 375
4 399 400 377 376
4 400 401 378 377
4 401 402 379 378
4 402 403 380 379
4 403 404 381 380
4 404 405 382 381
4 405 406 383 382
4 406 407 384 383
4 407 408 385 384
4 408 37 39 385
4 409 410 387 386
4 410 411 388 387
4 411 412 389 388
4 412 413 390 389
4 413 414 391 390
4 414 415 392 391
4 415 416 393 392
4 416 417 394 393
4 417 418 395 394
4 418 419 396 395
4 419 420 397 396
4 420 421 398 397
4 421 422 399 398
4 422 423 400 399
4 423 424 401 400
4 424 425 402 401
4 425 426 403 402
4 426 427 404 403
4 427 428 405 404
4 428 429 406 405
4 429 430 407 406
4 430 431 408 407
4 431 35 37 408
4 432 433 410 409
4 433 434 411 410
4 434 435 412 411
4 435 436 413 412
4 436 437 414 413
4 437 438 415 414
4 438 439 416 415
4 439 440 417 416
4 440 441 418 417
4 441 442 419 418
4 442 443 420 419
4 443 444 421 420
4 444 445 422 421
4 445 446 423 422
4 446 447 424 423
4 447 448 425 424
4 448 449 426 425
4 449 450 427 426
4 450 451 428 427
4 451 452 429 428
4 452 453 430 429
4 453 454 431 430
4 454 33 35 431
4 455 456 433 432
4 456 457 434 433
4 457 458 435 434
4 458 459 436 435
4 459 460 437 436
4 460 461 438 437
4 461 462 439 438
4 462 463 440 439
4 463 464 441 440
4 464 465 442 441
4 465 466 443 442
4 466 467 444 443
4 467 468 445 444
4 468 469 446 445
4 469 470 447 446
4 470 471 448 447
4 471 472 449 448
4 472 473 450 449
4 473 474 451 450
4 474 475 452 451
4 475 476 453 452
4 476 477 454 453
4 477 31 33 454
4 478 479 456 455
4 479 480 457 456
4 480 481 458 457
4 481 482 459 458
4 482 483 460 459
4 483 484 461 460
4 484 485 462 461
4 485 486 463 462
4 486 487 464 463
4 487 488 465 464
4 488 489 466 465
4 489 490 467 466
4 490 491 468 467
4 491 492 469 468
4 492 493 470 469
4 493 494 471 470
4 494 495 472 471
4 495 496 473 472
4 496 497 474 473
4 497 498 475 474
4 498 499 476 475
4 499 500 477 476
4 500 29 31 477
4 501 502 479 478
4 502 503 480 479
4 503 504 481 480
4 504 505 482 481
4 505 506 483 482
4 506 507 484 483
4 507 508 485 484
4 508 509 486 485
4 509 510 487 486
4 510 511 488 487
4 511 512 489 488
4 512 513 490 489
4 513 514 491 490
4 514 515 492 491
4 515 516 493 492
4 516 517 494 493
4 517 518 495 494
4 518 519 496 495
4 519 520 497 496
4 520 521 498 497
4 521 522 499 498
4 522 523 500 499
4 523 27 29 500
4 524 525 502 501
4 525 526 503 502
4 526 527 504 503
4 527 528 505 504
4 528 529 506 505
4 529 530 507 506
4 530 531 508 507
4 531 532 509 508
4 532 533 510 509
4 533 534 511 510
4 534 535 512 511
4 535 536 513 512
4 536 537 514 513
4 537 538 515 514
4 538 539 516 515
4 539 540 517 516
4 540 541 518 517
4 541 542 519 518
4 542 543 520 519
4 543 544 521 520
4 544 545 522 521
4 545 546 523 522
4 546 25 27 523
4 547 548 525 524
4 548 549 526 525
4 549 550 527 526
4 550 551 528 527
4 551 552 529 528
4 552 553 530 529
4 553 554 531 530
4 554 555 532 531
4 555 556 533 532
4 556 557 534 533
4 557 558 535 534
4 558 559 536 535
4 559 560 537 536
4 560 561 538 537
4 561 562 539 538
4 562 563 540 539
4 563 564 541 540
4 564 565 542 541
4 565 566 543 542
4 566 567 544 543
4 567 568 545 544
4 568 569 546 545
4 569 23 25 546
4 570 571 548 547
4 571 572 549 548
4 572 573 550 549
4 573 574 551 550
4 574 575 552 551
4 575 576 553 552
4 576 577 554 553
4 577 578 555 554
4 578 579 556 555
4 579 580 557 556
4 580 581 558 557
4 581 582 559 558
4 582 583 560 559
4 583 584 561 560
4 584 585 562 561
4 585 586 563 562
4 586 587 564 563
4 587 588 565 564
4 588 589 566 565
4 589 590 567 566
4 590 591 568 567
4 591 592 569 568
4 592 21 23 569
4 593 594 571 570
4 594 595 572 571
4 595 596 573 572
4 596 597 574 573
4 597 598 575 574
4 598 599 576 575
4 599 600 577 576
4 600 601 578 577
4 601 602 579 578
4 602 603 580 579
4 603 604 581 580
4 604 605 582 581
4 605 606 583 582
4 606 607 584 583
4 607 608 585 584
4 608 609 586 585
4 609 610 587 586
4 610 611 588 587
4 611 612 589 588
4 612 613 590 589
4 613 614 591 590
4 614 615 592 591
4 615 19 21 592
4 616 617 594 593
4 617 618 595 594
4 618 619 596 595
4 619 620 597 596
4 620 621 598 597
4 621 622 599 598
4 622 623 600 599
4 623 624 601 600
4 624 625 602 601
4 625 626 603 602
4 626 627 604 603
4 627 628 605 604
4 628 629 606 605
4 629 630 607 606
4 630 631 608 607
4 631 632 609 608
4 632 633 610 609
4 633 634 611 610
4 634 635 612 611
4 635 636 613 612
4 636 637 614 613
4 637 638 615 614
4 638 17 19 615
4 639 640 617 616
4 640 641 618 617
4 641 642 619 618
4 642 643 620 619
4 643 644 621 620
4 644 645 622 621
4 645 646 623 622
4 646 647 624 623
4 647 648 625 624
4 648 649 626 625
4 649 650 627 626
4 650 651 628 627
4 651 652 629 628
4 652 653 630 629
4 653 654 631 630
4 654 655 632 631
4 655 656 633 632
4 656 657 634 633
4 657 658 635 634
4 658 659 636 635
4 659 660 637 636
4 660 661 638 637
4 661 15 17 638
4 662 663 640 639
4 663 664 641 640
4 664 665 642 641
4 665 666 643 642
4 666 667 644 643
4 667 668 645 644
4 668 669 646 645
4 669 670 647 646
4 670 671 648 647
4 671 672 649 648
4 672 673 650 649
4 673 674 651 650
4 674 675 652 651
4 675 676 653 652
4 676 677 654 653
4 677 678 655 654
4 678 679 656 655
4 679 680 657 656
4 680 681 658 657
4 681 682 659 658
4 682 683 660 659
4 683 684 661 660
4 684 13 15 661
4 685 686 663 662
4 686 687 664 663
4 687 688 665 664
4 688 689 666 665
4 689 690 667 666
4 690 691 668 667
4 691 692 669 668
4 692 693 670 669
4 693 694 671 670
4 694 695 672 671
4 695 696 673 672
4 696 697 674 673
4 697 698 675 674
4 698 699 676 675
4 699 700 677 676
4 700 701 678 677
4 701 702 679 678
4 702 703 680 679
4 703 704 681 680
4 704 705 682 681
4 705 706 683 682
4 706 707 684 683
4 707 11 13 684
4 708 709 686 685
4 709 710 687 686
4 710 711 688 687
4 711 712 689 688
4 712 713 690 689
4 713 714 691 690
4 714 715 692 691
4 715 716 693 692
4 716 717 694 693
4 717 718 695 694
4 718 719 696 695
4 719 720 697 696
4 720 721 698 697
4 721 722 699 698
4 722 723 700 699
4 723 724 701 700
4 724 725 702 701
4 725 726 703 702
4 726 727 704 703
4 727 728 705 704
4 728 729 706 705
4 729 730 707 706
4 730 9 11 707
4 731 732 709 708
4 732 733 710 709
4 733 734 711 710
4 734 735 712 711
4 735 736 713 712
4 736 737 714 713
4 737 738 715 714
4 738 739 716 715
4 739 740 717 716
4 740 741 718 717
4 741 742 719 718
4 742 743 720 719
4 743 744 721 720
4 744 745 722 721
4 745 746 723 722
4 746 747 724 723
4 747 748 725 724
4 748 749 726 725
4 749 750 727 726
4 750 751 728 727
4 751 752 729 728
4 752 753 730 729
4 753 7 9 730
4 754 755 732 731
4 755 756 733 732
4 756 757 734 733
4 757 758 735 734
4 758 759 736 735
4 759 760 737 736
4 760 761 738 737
4 761 762 739 738
4 762 763 740 739
4 763 764 741 740
4 764 765 742 741
4 765 766 743 742
4 766 767 744 743
4 767 768 745 744
4 768 769 746 745
4 769 770 747 746
4 770 771 748 747
4 771 772 749 748
4 772 773 750 749
4 773 774 751 750
4 774 775 752 751
4 775 776 753 752
4 776 5 7 753
4 777 778 755 754
4 778 779 756 755
4 779 780 757 756
4 780 781 758 757
4 781 782 759 758
4 782 783 760 759
4 783 784 761 760
4 784 785 762 761
4 785 786 763 762
4 786 787 764 763
4 787 788 765 764
4 788 789 766 765
4 789 790 767 766
4 790 791 768 767
4 791 792 769 768
4 792 793 770 769
4 793 794 771 770
4 794 795 772 771
4 795 796 773 772
4 796 797 774 773
4 797 798 775 774
4 798 799 776 775
4 799 3 5 776
4 65 64 778 777
4 64 69 779 778
4 69 71 780 779
4 71 73 781 780
4 73 75 782 781
4 75 77 783 782
4 77 79 784 783
4 79 81 785 784
4 81 83 786 785
4 83 85 787 786
4 85 87 788 787
4 87 89 789 788
4 89 91 790 789
4 91 93 791 790
4 93 95 792 791
4 95 97 793 792
4 97 99 794 793
4 99 101 795 794
4 101 103 796 795
4 103 105 797 796
4 105 107 798 797
4 107 109 799 798
4 109 0 3 799
