ply
format ascii 1.0
comment Created by Blender 2.79 (sub 0) - www.blender.org, source file: ''
element vertex 800
property float x
property float y
property float z
element face 1536
property list uchar uint vertex_indices
end_header
-1.837433 0.028844 2.535075
-1.823115 0.104836 2.344891
-1.830592 0.028844 2.344571
-1.829952 0.104836 2.535301
-1.800969 0.177908 2.345838
-1.807796 0.177908 2.535972
-1.765006 0.245251 2.347377
-1.771816 0.245251 2.537062
-1.716609 0.304278 2.349449
-1.723397 0.304278 2.538529
-1.657636 0.352720 2.351972
-1.664397 0.352720 2.540316
-1.590354 0.388715 2.354851
-1.597085 0.388715 2.542355
-1.517350 0.410881 2.357975
-1.524047 0.410881 2.544568
-1.441427 0.418366 2.361225
-1.448090 0.418366 2.546869
-1.365505 0.410881 2.364474
-1.372133 0.410881 2.549170
-1.292500 0.388715 2.367598
-1.299095 0.388715 2.551383
-1.225219 0.352720 2.370477
-1.231783 0.352720 2.553421
-1.166246 0.304278 2.373001
-1.172783 0.304278 2.555210
-1.117848 0.245251 2.375072
-1.124363 0.245251 2.556676
-1.081885 0.177908 2.376610
-1.088384 0.177908 2.557765
-1.059740 0.104836 2.377558
-1.066228 0.104836 2.558437
-1.052262 0.028844 2.377879
-1.066228 -0.047148 2.558437
-1.059740 -0.047147 2.377558
-1.088384 -0.120219 2.557766
-1.081885 -0.120219 2.376610
-1.124363 -0.187562 2.556676
-1.117848 -0.187562 2.375072
-1.172783 -0.246589 2.555210
-1.166246 -0.246589 2.373001
-1.231783 -0.295031 2.553421
-1.225219 -0.295031 2.370477
-1.299095 -0.331027 2.551383
-1.292500 -0.331027 2.367598
-1.372133 -0.353193 2.549170
-1.365505 -0.353192 2.364474
-1.448090 -0.360677 2.546869
-1.441428 -0.360677 2.361225
-1.524047 -0.353193 2.544569
-1.517350 -0.353192 2.357975
-1.597085 -0.331026 2.542355
-1.590355 -0.331026 2.354851
-1.664397 -0.295031 2.540316
-1.657636 -0.295030 2.351972
-1.723397 -0.246589 2.538529
-1.716609 -0.246588 2.349449
-1.771817 -0.187562 2.537062
-1.765006 -0.187562 2.347377
-1.807796 -0.120218 2.535972
-1.800969 -0.120219 2.345839
-1.829952 -0.047147 2.535301
-1.823115 -0.047147 2.344891
1.305620 0.028844 0.022153
1.487515 -0.047147 0.029425
1.305628 -0.047147 0.029638
1.108736 -0.047147 0.030702
0.919109 -0.047147 0.033516
1.108661 0.028844 0.023218
0.728978 -0.047147 0.038307
0.918960 0.028844 0.026033
0.538180 -0.047147 0.045573
0.728743 0.028844 0.030827
0.346594 -0.047147 0.055572
0.537843 0.028844 0.038096
0.153223 0.028844 0.061884
0.346137 0.028844 0.048102
-0.040406 -0.047147 0.087424
0.153831 -0.047147 0.069344
-0.236865 -0.047147 0.111393
-0.041201 0.028844 0.079982
-0.436922 -0.047147 0.143821
-0.237905 0.028844 0.103981
-0.643415 -0.047147 0.189375
-0.438303 0.028844 0.136466
-0.860937 -0.047147 0.259295
-0.645313 0.028844 0.182135
-1.080063 -0.047147 0.365892
-0.863679 0.028844 0.252331
-1.285316 -0.047147 0.515540
-1.083887 0.028844 0.359459
-1.460106 -0.047147 0.706295
-1.290291 0.028844 0.509948
-1.598465 0.028845 0.922083
-1.466111 0.028845 0.701828
-1.591709 -0.047147 0.925303
-1.684689 0.028844 1.151518
-1.677501 -0.047147 1.153606
-1.734818 0.028844 1.366420
-1.727465 -0.047147 1.367820
-1.767367 0.028844 1.568766
-1.759952 -0.047147 1.569785
-1.790732 0.028844 1.766061
-1.783287 -0.047147 1.766824
-1.808018 0.028844 1.960495
-1.800556 -0.047147 1.961071
-1.821018 0.028844 2.153162
-1.813547 -0.047147 2.153595
1.487458 -0.120219 0.051591
1.108955 -0.120219 0.052867
1.305652 -0.120219 0.051803
0.919551 -0.120219 0.055678
0.729676 -0.120219 0.060462
0.539179 -0.120219 0.067716
0.347950 -0.120219 0.077697
-0.038053 -0.120219 0.109464
0.155630 -0.120218 0.091436
-0.233786 -0.120219 0.133344
-0.432831 -0.120219 0.165606
-0.637793 -0.120218 0.210816
-0.852819 -0.120219 0.279921
-1.068736 -0.120219 0.384945
-1.270584 -0.120219 0.532102
-1.442322 -0.120218 0.719526
-1.571699 -0.120218 0.934839
-1.656216 -0.120219 1.159790
-1.705690 -0.120219 1.371965
-1.737993 -0.120218 1.572804
-1.761236 -0.120219 1.769086
-1.778457 -0.120219 1.962782
-1.791418 -0.120218 2.154882
1.487366 -0.187562 0.087587
1.109312 -0.187562 0.088861
1.305691 -0.187562 0.087799
0.920269 -0.187562 0.091666
0.730808 -0.187562 0.096440
0.540801 -0.187562 0.103675
0.350152 -0.187562 0.113625
-0.034231 -0.187562 0.145257
0.158551 -0.187562 0.127313
-0.228785 -0.187562 0.168990
-0.426187 -0.187562 0.200984
-0.628665 -0.187562 0.245635
-0.839636 -0.187562 0.313415
-1.050341 -0.187562 0.415886
-1.246660 -0.187562 0.558996
-1.413442 -0.187561 0.741012
-1.539206 -0.187561 0.950326
-1.621649 -0.187562 1.169832
-1.670330 -0.187562 1.378697
-1.702332 -0.187562 1.577706
-1.725428 -0.187562 1.772758
-1.742568 -0.187562 1.965561
-1.755483 -0.187562 2.156970
1.487243 -0.246589 0.136028
1.109792 -0.246589 0.137300
1.305744 -0.246589 0.136241
0.921235 -0.246589 0.140098
0.732333 -0.246589 0.144858
0.542984 -0.246589 0.152068
0.353115 -0.246589 0.161976
-0.029088 -0.246589 0.193425
0.162483 -0.246588 0.175595
-0.222055 -0.246589 0.216962
-0.417247 -0.246589 0.248594
-0.616380 -0.246588 0.292493
-0.821894 -0.246589 0.358491
-1.025586 -0.246589 0.457525
-1.214464 -0.246589 0.595191
-1.374577 -0.246588 0.769927
-1.495476 -0.246588 0.971168
-1.575131 -0.246588 1.183348
-1.622743 -0.246589 1.387756
-1.654342 -0.246589 1.584303
-1.677239 -0.246589 1.777700
-1.694271 -0.246589 1.969300
-1.707123 -0.246589 2.159779
1.487092 -0.295031 0.195055
1.110378 -0.295031 0.196324
1.305808 -0.295031 0.195267
0.922411 -0.295031 0.199113
0.734190 -0.295031 0.203856
0.545643 -0.295031 0.211035
0.356726 -0.295031 0.220892
-0.022822 -0.295031 0.252118
0.167274 -0.295030 0.234427
-0.213855 -0.295031 0.275417
-0.406353 -0.295030 0.306606
-0.601411 -0.295030 0.349590
-0.800276 -0.295031 0.413417
-0.995423 -0.295031 0.508263
-1.175232 -0.295030 0.639293
-1.327219 -0.295030 0.805160
-1.442192 -0.295030 0.996563
-1.518448 -0.295030 1.199816
-1.564758 -0.295031 1.398795
-1.595865 -0.295030 1.592341
-1.618521 -0.295031 1.783722
-1.635420 -0.295031 1.973856
-1.648196 -0.295031 2.163203
1.486920 -0.331026 0.262398
1.111045 -0.331026 0.263664
1.305881 -0.331027 0.262611
0.923754 -0.331026 0.266443
0.736309 -0.331026 0.271165
0.548678 -0.331026 0.278309
0.360845 -0.331026 0.288109
-0.015672 -0.331026 0.319080
0.172740 -0.331026 0.301548
-0.204499 -0.331027 0.342107
-0.393924 -0.331026 0.372792
-0.584332 -0.331026 0.414732
-0.775611 -0.331027 0.476081
-0.961009 -0.331026 0.566149
-1.130474 -0.331026 0.689610
-1.273188 -0.331026 0.845357
-1.381401 -0.331026 1.025537
-1.453779 -0.331026 1.218604
-1.498602 -0.331026 1.411390
-1.529149 -0.331026 1.601512
-1.551529 -0.331026 1.790593
-1.568278 -0.331027 1.979054
-1.580966 -0.331026 2.167108
1.486733 -0.353192 0.335469
1.111769 -0.353193 0.336732
1.305960 -0.353193 0.335682
0.925211 -0.353192 0.339500
0.738609 -0.353192 0.344201
0.551971 -0.353193 0.351306
0.365315 -0.353193 0.361044
-0.007915 -0.353192 0.391739
0.178670 -0.353192 0.374378
-0.194347 -0.353193 0.414469
-0.380438 -0.353192 0.444608
-0.565801 -0.353192 0.485415
-0.748849 -0.353193 0.544075
-0.923668 -0.353193 0.628959
-1.081908 -0.353192 0.744207
-1.214562 -0.353192 0.888973
-1.315438 -0.353192 1.056975
-1.383609 -0.353192 1.238991
-1.426820 -0.353192 1.425056
-1.456759 -0.353192 1.611462
-1.478839 -0.353193 1.798048
-1.495425 -0.353193 1.984694
-1.508017 -0.353193 2.171346
1.486539 -0.360677 0.411461
1.112522 -0.360677 0.412720
1.306042 -0.360677 0.411674
0.926726 -0.360677 0.415477
0.741000 -0.360677 0.420155
0.555395 -0.360677 0.427221
0.369963 -0.360677 0.436893
0.000153 -0.360677 0.467301
0.184838 -0.360677 0.450120
-0.183790 -0.360677 0.489725
-0.366413 -0.360677 0.519295
-0.546530 -0.360677 0.558922
-0.721017 -0.360677 0.614787
-0.884835 -0.360677 0.694279
-1.031401 -0.360677 0.800985
-1.153592 -0.360677 0.934333
-1.246839 -0.360677 1.089670
-1.310634 -0.360677 1.260192
-1.352169 -0.360677 1.439267
-1.381475 -0.360677 1.621811
-1.403243 -0.360677 1.805801
-1.419659 -0.360678 1.990559
-1.432153 -0.360677 2.175754
1.486345 -0.353193 0.487452
1.113276 -0.353193 0.488708
1.306125 -0.353193 0.487666
0.928241 -0.353193 0.491454
0.743391 -0.353192 0.496109
0.558820 -0.353193 0.503136
0.374612 -0.353193 0.512743
0.008220 -0.353193 0.542864
0.191005 -0.353192 0.525861
-0.173232 -0.353193 0.564980
-0.352387 -0.353192 0.593982
-0.527258 -0.353193 0.632430
-0.693185 -0.353193 0.685498
-0.846002 -0.353193 0.759600
-0.980894 -0.353193 0.857764
-1.092623 -0.353192 0.979693
-1.178240 -0.353192 1.122365
-1.237660 -0.353192 1.281394
-1.277518 -0.353193 1.453479
-1.306191 -0.353192 1.632160
-1.327648 -0.353193 1.813554
-1.343894 -0.353193 1.996425
-1.356289 -0.353193 2.180161
1.486159 -0.331027 0.560524
1.114000 -0.331027 0.561776
1.306204 -0.331027 0.560737
0.929698 -0.331027 0.564511
0.745691 -0.331027 0.569144
0.562112 -0.331027 0.576133
0.379081 -0.331027 0.585678
0.015978 -0.331027 0.615522
0.196936 -0.331027 0.598691
-0.163081 -0.331027 0.637342
-0.338901 -0.331027 0.665798
-0.508727 -0.331027 0.703112
-0.666422 -0.331027 0.753493
-0.808661 -0.331027 0.822410
-0.932328 -0.331027 0.912361
-1.033996 -0.331027 1.023309
-1.112277 -0.331026 1.153803
-1.167490 -0.331027 1.301780
-1.205736 -0.331027 1.467145
-1.233800 -0.331027 1.642111
-1.254958 -0.331027 1.821008
-1.271041 -0.331027 2.002065
-1.283341 -0.331027 2.184399
1.485987 -0.295031 0.627867
1.114668 -0.295031 0.629116
1.306277 -0.295031 0.628081
0.931041 -0.295031 0.631840
0.747809 -0.295031 0.636454
0.565147 -0.295031 0.643408
0.383200 -0.295031 0.652895
0.023127 -0.295031 0.682485
0.202402 -0.295031 0.665812
-0.153725 -0.295031 0.704033
-0.326472 -0.295031 0.731984
-0.491648 -0.295031 0.768254
-0.641758 -0.295031 0.816157
-0.774247 -0.295031 0.880296
-0.887569 -0.295031 0.962677
-0.979966 -0.295031 1.063506
-1.051486 -0.295031 1.182777
-1.102821 -0.295031 1.320569
-1.139580 -0.295031 1.479739
-1.167084 -0.295031 1.651281
-1.187966 -0.295031 1.827879
-1.203898 -0.295031 2.007263
-1.216111 -0.295031 2.188305
1.485836 -0.246589 0.686893
1.115253 -0.246589 0.688140
1.306341 -0.246589 0.687107
0.932217 -0.246589 0.690856
0.749667 -0.246589 0.695452
0.567807 -0.246589 0.702375
0.386811 -0.246589 0.711811
0.029394 -0.246589 0.741178
0.207193 -0.246589 0.724644
-0.145524 -0.246589 0.762487
-0.315578 -0.246589 0.789997
-0.476679 -0.246589 0.825351
-0.620139 -0.246589 0.871082
-0.744083 -0.246589 0.931034
-0.848338 -0.246589 1.006780
-0.932608 -0.246589 1.098739
-0.998201 -0.246589 1.208173
-1.046138 -0.246589 1.337037
-1.081595 -0.246589 1.490778
-1.108607 -0.246589 1.659320
-1.129247 -0.246589 1.833901
-1.145047 -0.246589 2.011818
-1.157183 -0.246589 2.191729
1.485712 -0.187562 0.735335
1.115733 -0.187562 0.736579
1.306394 -0.187563 0.735549
0.933183 -0.187562 0.739288
0.751191 -0.187562 0.743870
0.569989 -0.187562 0.750768
0.389774 -0.187562 0.760163
0.034537 -0.187562 0.789346
0.211124 -0.187562 0.772927
-0.138794 -0.187563 0.810459
-0.306638 -0.187562 0.837607
-0.464394 -0.187562 0.872210
-0.602398 -0.187562 0.916158
-0.719328 -0.187562 0.972673
-0.816142 -0.187562 1.042974
-0.893742 -0.187562 1.127654
-0.954472 -0.187562 1.229014
-0.999619 -0.187562 1.350552
-1.034008 -0.187562 1.499838
-1.060616 -0.187562 1.665916
-1.081058 -0.187562 1.838843
-1.096750 -0.187563 2.015558
-1.108823 -0.187562 2.194539
1.485620 -0.120219 0.771331
1.116090 -0.120219 0.772573
1.306433 -0.120219 0.771545
0.933901 -0.120219 0.775276
0.752324 -0.120219 0.779848
0.571612 -0.120219 0.786727
0.391976 -0.120219 0.796091
0.038358 -0.120219 0.825139
0.214046 -0.120219 0.808804
-0.133794 -0.120219 0.846106
-0.299994 -0.120219 0.872984
-0.455265 -0.120219 0.907028
-0.589214 -0.120219 0.949653
-0.700934 -0.120219 1.003614
-0.792218 -0.120219 1.069869
-0.864862 -0.120219 1.149140
-0.921978 -0.120219 1.244501
-0.965053 -0.120219 1.360595
-0.998648 -0.120219 1.506570
-1.024956 -0.120219 1.670818
-1.045250 -0.120219 1.842516
-1.060862 -0.120219 2.018336
-1.072888 -0.120219 2.196626
1.485564 -0.047148 0.793497
1.116309 -0.047148 0.794739
1.306457 -0.047148 0.793711
0.934343 -0.047148 0.797438
0.753021 -0.047147 0.802003
0.572611 -0.047148 0.808870
0.393332 -0.047148 0.818215
0.040712 -0.047148 0.847179
0.215845 -0.047147 0.830897
-0.130714 -0.047148 0.868057
-0.295903 -0.047148 0.894769
-0.449644 -0.047148 0.928470
-0.581096 -0.047148 0.970279
-0.689607 -0.047148 1.022667
-0.777485 -0.047148 1.086431
-0.847078 -0.047148 1.162371
-0.901969 -0.047147 1.254038
-0.943767 -0.047148 1.366779
-0.976873 -0.047148 1.510715
-1.002996 -0.047148 1.673837
-1.023200 -0.047148 1.844777
-1.038762 -0.047148 2.020047
-1.050759 -0.047147 2.197912
1.485544 0.028844 0.800981
1.116384 0.028844 0.802222
1.306465 0.028844 0.801196
0.934492 0.028844 0.804921
0.753257 0.028844 0.809484
0.572948 0.028844 0.816347
0.393790 0.028844 0.825686
0.041506 0.028844 0.854622
0.216452 0.028844 0.838356
-0.129674 0.028844 0.875469
-0.294522 0.028844 0.902125
-0.447746 0.028844 0.935710
-0.578355 0.028844 0.977243
-0.685782 0.028844 1.029100
-0.772511 0.028844 1.092023
-0.841073 0.028844 1.166839
-0.895212 0.028844 1.257258
-0.936580 0.028844 1.368867
-0.969520 0.028844 1.512115
-0.995582 0.028844 1.674856
-1.015754 0.028844 1.845541
-1.031300 0.028844 2.020625
-1.043287 0.028844 2.198346
1.306457 0.104836 0.793711
1.485564 0.104836 0.793497
1.116309 0.104836 0.794739
0.934343 0.104836 0.797438
0.753021 0.104836 0.802003
0.572611 0.104836 0.808870
0.215845 0.104836 0.830896
0.393332 0.104836 0.818215
0.040711 0.104836 0.847180
-0.130714 0.104836 0.868057
-0.295903 0.104836 0.894769
-0.449644 0.104836 0.928470
-0.581096 0.104836 0.970279
-0.689607 0.104836 1.022667
-0.777485 0.104836 1.086431
-0.901969 0.104836 1.254038
-0.847078 0.104836 1.162371
-0.943767 0.104836 1.366779
-0.976873 0.104836 1.510715
-1.002996 0.104836 1.673837
-1.023200 0.104836 1.844777
-1.038762 0.104836 2.020047
-1.050759 0.104836 2.197912
1.306433 0.177908 0.771545
1.485620 0.177908 0.771331
1.116090 0.177908 0.772573
0.933901 0.177908 0.775276
0.752324 0.177908 0.779848
0.571612 0.177908 0.786727
0.214046 0.177908 0.808804
0.391976 0.177908 0.796091
0.038358 0.177908 0.825139
-0.133794 0.177908 0.846106
-0.299994 0.177908 0.872984
-0.455265 0.177908 0.907029
-0.589214 0.177908 0.949653
-0.700934 0.177908 1.003614
-0.792218 0.177908 1.069870
-0.921978 0.177908 1.244501
-0.864862 0.177908 1.149140
-0.965053 0.177908 1.360595
-0.998647 0.177908 1.506570
-1.024956 0.177908 1.670818
-1.045250 0.177908 1.842515
-1.060862 0.177907 2.018336
-1.072888 0.177908 2.196626
1.306394 0.245251 0.735549
1.485712 0.245251 0.735335
1.115733 0.245251 0.736580
0.933183 0.245251 0.739288
0.751191 0.245251 0.743870
0.569989 0.245251 0.750768
0.211124 0.245251 0.772927
0.389774 0.245251 0.760163
0.034537 0.245251 0.789347
-0.138794 0.245251 0.810459
-0.306638 0.245251 0.837607
-0.464394 0.245251 0.872210
-0.602398 0.245251 0.916158
-0.719328 0.245251 0.972673
-0.816141 0.245251 1.042975
-0.954472 0.245251 1.229014
-0.893742 0.245251 1.127655
-0.999619 0.245251 1.350552
-1.034008 0.245251 1.499838
-1.060616 0.245251 1.665916
-1.081058 0.245251 1.838843
-1.096750 0.245251 2.015558
-1.108823 0.245251 2.194539
1.306341 0.304278 0.687107
1.485836 0.304278 0.686893
1.115253 0.304278 0.688140
0.932217 0.304278 0.690856
0.749667 0.304278 0.695452
0.567807 0.304278 0.702375
0.207193 0.304278 0.724644
0.386811 0.304277 0.711811
0.029394 0.304278 0.741178
-0.145524 0.304277 0.762487
-0.315578 0.304278 0.789997
-0.476679 0.304278 0.825351
-0.620139 0.304278 0.871082
-0.744083 0.304278 0.931034
-0.848338 0.304278 1.006780
-0.998201 0.304278 1.208173
-0.932607 0.304278 1.098739
-1.046138 0.304278 1.337037
-1.081595 0.304278 1.490779
-1.108607 0.304278 1.659320
-1.129247 0.304278 1.833901
-1.145047 0.304278 2.011818
-1.157183 0.304278 2.191728
1.306277 0.352720 0.628081
1.485986 0.352720 0.627867
1.114668 0.352720 0.629116
0.931041 0.352720 0.631841
0.747809 0.352720 0.636455
0.565147 0.352720 0.643408
0.202402 0.352720 0.665812
0.383200 0.352720 0.652895
0.023128 0.352720 0.682485
-0.153725 0.352719 0.704033
-0.326472 0.352720 0.731984
-0.491648 0.352720 0.768254
-0.641758 0.352720 0.816157
-0.774247 0.352720 0.880296
-0.887569 0.352720 0.962677
-1.051486 0.352720 1.182777
-0.979966 0.352720 1.063506
-1.102821 0.352720 1.320569
-1.139580 0.352720 1.479739
-1.167084 0.352720 1.651281
-1.187966 0.352720 1.827879
-1.203898 0.352719 2.007263
-1.216111 0.352720 2.188305
1.306204 0.388715 0.560738
1.486159 0.388715 0.560524
1.114000 0.388715 0.561776
0.929698 0.388715 0.564511
0.745690 0.388715 0.569145
0.562112 0.388715 0.576133
0.196936 0.388715 0.598691
0.379081 0.388715 0.585678
0.015978 0.388715 0.615523
-0.163081 0.388715 0.637343
-0.338901 0.388715 0.665798
-0.508727 0.388715 0.703113
-0.666422 0.388715 0.753493
-0.808661 0.388715 0.822410
-0.932328 0.388715 0.912361
-1.112277 0.388715 1.153803
-1.033996 0.388715 1.023309
-1.167490 0.388715 1.301780
-1.205736 0.388715 1.467145
-1.233800 0.388715 1.642111
-1.254957 0.388715 1.821008
-1.271040 0.388715 2.002065
-1.283340 0.388715 2.184399
1.306125 0.410881 0.487666
1.486345 0.410881 0.487453
1.113276 0.410881 0.488708
0.928241 0.410881 0.491454
0.743391 0.410881 0.496109
0.558820 0.410881 0.503136
0.191005 0.410881 0.525861
0.374611 0.410881 0.512743
0.008220 0.410881 0.542864
-0.173232 0.410881 0.564980
-0.352387 0.410881 0.593982
-0.527258 0.410881 0.632430
-0.693185 0.410881 0.685498
-0.846001 0.410881 0.759600
-0.980894 0.410881 0.857764
-1.178240 0.410881 1.122365
-1.092623 0.410881 0.979693
-1.237660 0.410881 1.281394
-1.277518 0.410881 1.453479
-1.306190 0.410881 1.632160
-1.327648 0.410881 1.813554
-1.343894 0.410881 1.996425
-1.356289 0.410881 2.180161
1.306042 0.418366 0.411674
1.486539 0.418366 0.411461
1.112522 0.418366 0.412720
0.926726 0.418366 0.415477
0.741000 0.418366 0.420155
0.555395 0.418366 0.427222
0.184838 0.418366 0.450120
0.369963 0.418366 0.436894
0.000153 0.418366 0.467302
-0.183790 0.418366 0.489725
-0.366413 0.418366 0.519295
-0.546529 0.418366 0.558922
-0.721017 0.418366 0.614787
-0.884835 0.418366 0.694280
-1.031401 0.418366 0.800986
-1.246839 0.418366 1.089670
-1.153592 0.418366 0.934333
-1.310634 0.418366 1.260192
-1.352169 0.418366 1.439267
-1.381474 0.418366 1.621811
-1.403243 0.418366 1.805801
-1.419659 0.418366 1.990559
-1.432153 0.418366 2.175754
1.305960 0.410881 0.335682
1.486733 0.410881 0.335469
1.111769 0.410881 0.336732
0.925211 0.410881 0.339500
0.738609 0.410881 0.344201
0.551971 0.410881 0.351307
0.178670 0.410881 0.374379
0.365315 0.410881 0.361044
-0.007915 0.410881 0.391739
-0.194347 0.410881 0.414470
-0.380438 0.410881 0.444609
-0.565801 0.410881 0.485415
-0.748849 0.410881 0.544075
-0.923668 0.410881 0.628959
-1.081908 0.410881 0.744207
-1.315438 0.410881 1.056976
-1.214561 0.410881 0.888974
-1.383609 0.410881 1.238991
-1.426820 0.410881 1.425056
-1.456758 0.410881 1.611463
-1.478838 0.410881 1.798048
-1.495424 0.410881 1.984694
-1.508017 0.410881 2.171346
1.305881 0.388715 0.262611
1.486920 0.388715 0.262398
1.111045 0.388715 0.263664
0.923754 0.388715 0.266443
0.736309 0.388715 0.271166
0.548678 0.388715 0.278310
0.172739 0.388715 0.301548
0.360845 0.388715 0.288110
-0.015672 0.388715 0.319081
-0.204499 0.388715 0.342107
-0.393924 0.388715 0.372793
-0.584332 0.388715 0.414732
-0.775611 0.388715 0.476081
-0.961009 0.388715 0.566149
-1.130474 0.388715 0.689610
-1.381400 0.388715 1.025537
-1.273188 0.388715 0.845357
-1.453779 0.388715 1.218604
-1.498602 0.388715 1.411390
-1.529149 0.388715 1.601512
-1.551529 0.388715 1.790593
-1.568278 0.388715 1.979054
-1.580966 0.388715 2.167108
1.305808 0.352720 0.195268
1.487092 0.352720 0.195055
1.110378 0.352720 0.196324
0.922411 0.352720 0.199114
0.734190 0.352720 0.203856
0.545643 0.352720 0.211035
0.167274 0.352720 0.234427
0.356726 0.352720 0.220893
-0.022822 0.352720 0.252118
-0.213855 0.352720 0.275417
-0.406353 0.352720 0.306607
-0.601410 0.352720 0.349591
-0.800275 0.352720 0.413417
-0.995422 0.352720 0.508263
-1.175232 0.352720 0.639294
-1.442192 0.352720 0.996564
-1.327218 0.352720 0.805160
-1.518448 0.352720 1.199816
-1.564757 0.352720 1.398795
-1.595865 0.352720 1.592341
-1.618520 0.352720 1.783722
-1.635420 0.352719 1.973855
-1.648195 0.352720 2.163202
1.305743 0.304277 0.136241
1.487243 0.304278 0.136029
1.109792 0.304278 0.137301
0.921234 0.304278 0.140099
0.732333 0.304278 0.144858
0.542984 0.304278 0.152068
0.162483 0.304278 0.175596
0.353115 0.304278 0.161976
-0.029088 0.304278 0.193425
-0.222055 0.304277 0.216963
-0.417247 0.304278 0.248594
-0.616380 0.304278 0.292494
-0.821894 0.304278 0.358492
-1.025586 0.304278 0.457525
-1.214463 0.304278 0.595191
-1.495476 0.304278 0.971168
-1.374576 0.304278 0.769927
-1.575131 0.304278 1.183348
-1.622742 0.304278 1.387756
-1.654342 0.304278 1.584303
-1.677239 0.304278 1.777700
-1.694271 0.304277 1.969300
-1.707122 0.304278 2.159779
1.305691 0.245251 0.087799
1.487366 0.245251 0.087587
1.109312 0.245251 0.088861
0.920269 0.245251 0.091666
0.730808 0.245251 0.096441
0.540801 0.245251 0.103675
0.158551 0.245251 0.127313
0.350152 0.245251 0.113625
-0.034231 0.245251 0.145257
-0.228785 0.245251 0.168990
-0.426187 0.245251 0.200984
-0.628665 0.245251 0.245635
-0.839636 0.245251 0.313416
-1.050341 0.245251 0.415886
-1.246660 0.245251 0.558997
-1.539206 0.245251 0.950326
-1.413442 0.245251 0.741012
-1.621649 0.245251 1.169833
-1.670330 0.245251 1.378697
-1.702332 0.245251 1.577706
-1.725428 0.245251 1.772758
-1.742568 0.245251 1.965561
-1.755483 0.245251 2.156970
1.305652 0.177908 0.051804
1.487458 0.177908 0.051591
1.108955 0.177908 0.052867
0.919551 0.177908 0.055678
0.729676 0.177908 0.060463
0.539179 0.177908 0.067716
0.155630 0.177908 0.091437
0.347950 0.177908 0.077697
-0.038053 0.177908 0.109465
-0.233786 0.177908 0.133344
-0.432831 0.177908 0.165607
-0.637793 0.177908 0.210816
-0.852819 0.177908 0.279921
-1.068735 0.177908 0.384946
-1.270584 0.177908 0.532102
-1.571699 0.177908 0.934839
-1.442322 0.177908 0.719526
-1.656215 0.177908 1.159790
-1.705690 0.177908 1.371965
-1.737993 0.177908 1.572804
-1.761236 0.177908 1.769086
-1.778456 0.177907 1.962782
-1.791418 0.177908 2.154881
1.305628 0.104836 0.029638
1.487515 0.104836 0.029425
1.108736 0.104836 0.030702
0.919109 0.104836 0.033516
0.728978 0.104836 0.038308
0.538180 0.104836 0.045573
0.153831 0.104836 0.069344
0.346594 0.104836 0.055573
-0.040406 0.104836 0.087424
-0.236865 0.104836 0.111393
-0.436922 0.104836 0.143821
-0.643415 0.104836 0.189375
-0.860937 0.104836 0.259295
-1.080063 0.104836 0.365892
-1.285316 0.104836 0.515540
-1.591709 0.104836 0.925303
-1.460106 0.104836 0.706295
-1.677501 0.104836 1.153606
-1.727465 0.104836 1.367820
-1.759952 0.104836 1.569785
-1.783286 0.104836 1.766824
-1.800556 0.104836 1.961071
-1.813547 0.104836 2.153595
1.487534 0.028844 0.021941
-1.058747 0.028844 2.558664
3 0 1 2
3 3 4 1
3 5 6 4
3 7 8 6
3 9 10 8
3 11 12 10
3 13 14 12
3 15 16 14
3 17 18 16
3 19 20 18
3 21 22 20
3 23 24 22
3 25 26 24
3 27 28 26
3 29 30 28
3 31 32 30
3 32 33 34
3 34 35 36
3 36 37 38
3 38 39 40
3 40 41 42
3 42 43 44
3 44 45 46
3 46 47 48
3 48 49 50
3 50 51 52
3 52 53 54
3 54 55 56
3 56 57 58
3 58 59 60
3 60 61 62
3 0 62 61
3 63 64 65
3 66 63 65
3 67 68 66
3 69 70 67
3 71 72 69
3 73 74 71
3 73 75 76
3 77 75 78
3 79 80 77
3 81 82 79
3 83 84 81
3 85 86 83
3 87 88 85
3 89 90 87
3 91 92 89
3 91 93 94
3 95 96 93
3 97 98 96
3 99 100 98
3 101 102 100
3 103 104 102
3 105 106 104
3 2 107 62
3 108 65 64
3 109 65 110
3 111 66 109
3 112 67 111
3 113 69 112
3 114 71 113
3 114 78 73
3 115 78 116
3 117 77 115
3 118 79 117
3 119 81 118
3 120 83 119
3 121 85 120
3 122 87 121
3 123 89 122
3 123 95 91
3 124 97 95
3 125 99 97
3 126 101 99
3 127 103 101
3 128 105 103
3 129 107 105
3 130 62 107
3 131 110 108
3 132 110 133
3 134 109 132
3 135 111 134
3 136 112 135
3 137 113 136
3 137 116 114
3 138 116 139
3 140 115 138
3 141 117 140
3 142 118 141
3 143 119 142
3 144 120 143
3 145 121 144
3 146 122 145
3 146 124 123
3 147 125 124
3 148 126 125
3 149 127 126
3 150 128 127
3 151 129 128
3 152 130 129
3 153 60 130
3 154 133 131
3 155 133 156
3 157 132 155
3 158 134 157
3 159 135 158
3 160 136 159
3 160 139 137
3 161 139 162
3 163 138 161
3 164 140 163
3 165 141 164
3 166 142 165
3 167 143 166
3 168 144 167
3 169 145 168
3 169 147 146
3 170 148 147
3 171 149 148
3 172 150 149
3 173 151 150
3 174 152 151
3 175 153 152
3 176 58 153
3 177 156 154
3 178 156 179
3 180 155 178
3 181 157 180
3 182 158 181
3 183 159 182
3 183 162 160
3 184 162 185
3 186 161 184
3 187 163 186
3 188 164 187
3 189 165 188
3 190 166 189
3 191 167 190
3 192 168 191
3 192 170 169
3 193 171 170
3 194 172 171
3 195 173 172
3 196 174 173
3 197 175 174
3 198 176 175
3 199 56 176
3 200 179 177
3 201 179 202
3 203 178 201
3 204 180 203
3 205 181 204
3 206 182 205
3 206 185 183
3 207 185 208
3 209 184 207
3 210 186 209
3 211 187 210
3 212 188 211
3 213 189 212
3 214 190 213
3 215 191 214
3 215 193 192
3 216 194 193
3 217 195 194
3 218 196 195
3 219 197 196
3 220 198 197
3 221 199 198
3 222 54 199
3 223 202 200
3 224 202 225
3 226 201 224
3 227 203 226
3 228 204 227
3 229 205 228
3 229 208 206
3 230 208 231
3 232 207 230
3 233 209 232
3 234 210 233
3 235 211 234
3 236 212 235
3 237 213 236
3 238 214 237
3 238 216 215
3 239 217 216
3 240 218 217
3 241 219 218
3 242 220 219
3 243 221 220
3 244 222 221
3 245 52 222
3 246 225 223
3 247 225 248
3 249 224 247
3 250 226 249
3 251 227 250
3 252 228 251
3 252 231 229
3 253 231 254
3 255 230 253
3 256 232 255
3 257 233 256
3 258 234 257
3 259 235 258
3 260 236 259
3 261 237 260
3 261 239 238
3 262 240 239
3 263 241 240
3 264 242 241
3 265 243 242
3 266 244 243
3 267 245 244
3 268 50 245
3 269 248 246
3 270 248 271
3 272 247 270
3 273 249 272
3 274 250 273
3 275 251 274
3 275 254 252
3 276 254 277
3 278 253 276
3 279 255 278
3 280 256 279
3 281 257 280
3 282 258 281
3 283 259 282
3 284 260 283
3 284 262 261
3 285 263 262
3 286 264 263
3 287 265 264
3 288 266 265
3 289 267 266
3 290 268 267
3 291 48 268
3 292 271 269
3 293 271 294
3 295 270 293
3 296 272 295
3 297 273 296
3 298 274 297
3 298 277 275
3 299 277 300
3 301 276 299
3 302 278 301
3 303 279 302
3 304 280 303
3 305 281 304
3 306 282 305
3 307 283 306
3 307 285 284
3 308 286 285
3 309 287 286
3 310 288 287
3 311 289 288
3 312 290 289
3 313 291 290
3 314 46 291
3 315 294 292
3 316 294 317
3 318 293 316
3 319 295 318
3 320 296 319
3 321 297 320
3 321 300 298
3 322 300 323
3 324 299 322
3 325 301 324
3 326 302 325
3 327 303 326
3 328 304 327
3 329 305 328
3 330 306 329
3 330 308 307
3 331 309 308
3 332 310 309
3 333 311 310
3 334 312 311
3 335 313 312
3 336 314 313
3 337 44 314
3 338 317 315
3 339 317 340
3 341 316 339
3 342 318 341
3 343 319 342
3 344 320 343
3 344 323 321
3 345 323 346
3 347 322 345
3 348 324 347
3 349 325 348
3 350 326 349
3 351 327 350
3 352 328 351
3 353 329 352
3 353 331 330
3 354 332 331
3 355 333 332
3 356 334 333
3 357 335 334
3 358 336 335
3 359 337 336
3 360 42 337
3 361 340 338
3 362 340 363
3 364 339 362
3 365 341 364
3 366 342 365
3 367 343 366
3 367 346 344
3 368 346 369
3 370 345 368
3 371 347 370
3 372 348 371
3 373 349 372
3 374 350 373
3 375 351 374
3 376 352 375
3 376 354 353
3 377 355 354
3 378 356 355
3 379 357 356
3 380 358 357
3 381 359 358
3 382 360 359
3 383 40 360
3 384 363 361
3 385 363 386
3 387 362 385
3 388 364 387
3 389 365 388
3 390 366 389
3 390 369 367
3 391 369 392
3 393 368 391
3 394 370 393
3 395 371 394
3 396 372 395
3 397 373 396
3 398 374 397
3 399 375 398
3 399 377 376
3 400 378 377
3 401 379 378
3 402 380 379
3 403 381 380
3 404 382 381
3 405 383 382
3 406 38 383
3 407 386 384
3 408 386 409
3 410 385 408
3 411 387 410
3 412 388 411
3 413 389 412
3 413 392 390
3 414 392 415
3 416 391 414
3 417 393 416
3 418 394 417
3 419 395 418
3 420 396 419
3 421 397 420
3 422 398 421
3 422 400 399
3 423 401 400
3 424 402 401
3 425 403 402
3 426 404 403
3 427 405 404
3 428 406 405
3 429 36 406
3 430 409 407
3 431 409 432
3 433 408 431
3 434 410 433
3 435 411 434
3 436 412 435
3 436 415 413
3 437 415 438
3 439 414 437
3 440 416 439
3 441 417 440
3 442 418 441
3 443 419 442
3 444 420 443
3 445 421 444
3 445 423 422
3 446 424 423
3 447 425 424
3 448 426 425
3 449 427 426
3 450 428 427
3 451 429 428
3 452 34 429
3 453 430 454
3 453 431 432
3 455 433 431
3 456 434 433
3 457 435 434
3 458 436 435
3 459 436 460
3 459 437 438
3 461 439 437
3 462 440 439
3 463 441 440
3 464 442 441
3 465 443 442
3 466 444 443
3 467 445 444
3 468 445 469
3 470 446 468
3 471 447 470
3 472 448 471
3 473 449 472
3 474 450 473
3 475 451 474
3 30 452 475
3 476 454 477
3 476 455 453
3 478 456 455
3 479 457 456
3 480 458 457
3 481 460 458
3 482 460 483
3 482 461 459
3 484 462 461
3 485 463 462
3 486 464 463
3 487 465 464
3 488 466 465
3 489 467 466
3 490 469 467
3 491 469 492
3 493 468 491
3 494 470 493
3 495 471 494
3 496 472 495
3 497 473 496
3 498 474 497
3 28 475 498
3 499 477 500
3 499 478 476
3 501 479 478
3 502 480 479
3 503 481 480
3 504 483 481
3 505 483 506
3 505 484 482
3 507 485 484
3 508 486 485
3 509 487 486
3 510 488 487
3 511 489 488
3 512 490 489
3 513 492 490
3 514 492 515
3 516 491 514
3 517 493 516
3 518 494 517
3 519 495 518
3 520 496 519
3 521 497 520
3 26 498 521
3 522 500 523
3 522 501 499
3 524 502 501
3 525 503 502
3 526 504 503
3 527 506 504
3 528 506 529
3 528 507 505
3 530 508 507
3 531 509 508
3 532 510 509
3 533 511 510
3 534 512 511
3 535 513 512
3 536 515 513
3 537 515 538
3 539 514 537
3 540 516 539
3 541 517 540
3 542 518 541
3 543 519 542
3 544 520 543
3 24 521 544
3 545 523 546
3 545 524 522
3 547 525 524
3 548 526 525
3 549 527 526
3 550 529 527
3 551 529 552
3 551 530 528
3 553 531 530
3 554 532 531
3 555 533 532
3 556 534 533
3 557 535 534
3 558 536 535
3 559 538 536
3 560 538 561
3 562 537 560
3 563 539 562
3 564 540 563
3 565 541 564
3 566 542 565
3 567 543 566
3 22 544 567
3 568 546 569
3 568 547 545
3 570 548 547
3 571 549 548
3 572 550 549
3 573 552 550
3 574 552 575
3 574 553 551
3 576 554 553
3 577 555 554
3 578 556 555
3 579 557 556
3 580 558 557
3 581 559 558
3 582 561 559
3 583 561 584
3 585 560 583
3 586 562 585
3 587 563 586
3 588 564 587
3 589 565 588
3 590 566 589
3 20 567 590
3 591 569 592
3 591 570 568
3 593 571 570
3 594 572 571
3 595 573 572
3 596 575 573
3 597 575 598
3 597 576 574
3 599 577 576
3 600 578 577
3 601 579 578
3 602 580 579
3 603 581 580
3 604 582 581
3 605 584 582
3 606 584 607
3 608 583 606
3 609 585 608
3 610 586 609
3 611 587 610
3 612 588 611
3 613 589 612
3 18 590 613
3 614 592 615
3 614 593 591
3 616 594 593
3 617 595 594
3 618 596 595
3 619 598 596
3 620 598 621
3 620 599 597
3 622 600 599
3 623 601 600
3 624 602 601
3 625 603 602
3 626 604 603
3 627 605 604
3 628 607 605
3 629 607 630
3 631 606 629
3 632 608 631
3 633 609 632
3 634 610 633
3 635 611 634
3 636 612 635
3 16 613 636
3 637 615 638
3 637 616 614
3 639 617 616
3 640 618 617
3 641 619 618
3 642 621 619
3 643 621 644
3 643 622 620
3 645 623 622
3 646 624 623
3 647 625 624
3 648 626 625
3 649 627 626
3 650 628 627
3 651 630 628
3 652 630 653
3 654 629 652
3 655 631 654
3 656 632 655
3 657 633 656
3 658 634 657
3 659 635 658
3 14 636 659
3 660 638 661
3 660 639 637
3 662 640 639
3 663 641 640
3 664 642 641
3 665 644 642
3 666 644 667
3 666 645 643
3 668 646 645
3 669 647 646
3 670 648 647
3 671 649 648
3 672 650 649
3 673 651 650
3 674 653 651
3 675 653 676
3 677 652 675
3 678 654 677
3 679 655 678
3 680 656 679
3 681 657 680
3 682 658 681
3 12 659 682
3 683 661 684
3 683 662 660
3 685 663 662
3 686 664 663
3 687 665 664
3 688 667 665
3 689 667 690
3 689 668 666
3 691 669 668
3 692 670 669
3 693 671 670
3 694 672 671
3 695 673 672
3 696 674 673
3 697 676 674
3 698 676 699
3 700 675 698
3 701 677 700
3 702 678 701
3 703 679 702
3 704 680 703
3 705 681 704
3 10 682 705
3 706 684 707
3 706 685 683
3 708 686 685
3 709 687 686
3 710 688 687
3 711 690 688
3 712 690 713
3 712 691 689
3 714 692 691
3 715 693 692
3 716 694 693
3 717 695 694
3 718 696 695
3 719 697 696
3 720 699 697
3 721 699 722
3 723 698 721
3 724 700 723
3 725 701 724
3 726 702 725
3 727 703 726
3 728 704 727
3 8 705 728
3 729 707 730
3 729 708 706
3 731 709 708
3 732 710 709
3 733 711 710
3 734 713 711
3 735 713 736
3 735 714 712
3 737 715 714
3 738 716 715
3 739 717 716
3 740 718 717
3 741 719 718
3 742 720 719
3 743 722 720
3 744 722 745
3 746 721 744
3 747 723 746
3 748 724 747
3 749 725 748
3 750 726 749
3 751 727 750
3 6 728 751
3 752 730 753
3 752 731 729
3 754 732 731
3 755 733 732
3 756 734 733
3 757 736 734
3 758 736 759
3 758 737 735
3 760 738 737
3 761 739 738
3 762 740 739
3 763 741 740
3 764 742 741
3 765 743 742
3 766 745 743
3 767 745 768
3 769 744 767
3 770 746 769
3 771 747 770
3 772 748 771
3 773 749 772
3 774 750 773
3 4 751 774
3 775 753 776
3 775 754 752
3 777 755 754
3 778 756 755
3 779 757 756
3 780 759 757
3 781 759 782
3 781 760 758
3 783 761 760
3 784 762 761
3 785 763 762
3 786 764 763
3 787 765 764
3 788 766 765
3 789 768 766
3 790 768 791
3 792 767 790
3 793 769 792
3 794 770 793
3 795 771 794
3 796 772 795
3 797 773 796
3 1 774 797
3 63 776 798
3 63 777 775
3 68 778 777
3 70 779 778
3 72 780 779
3 74 782 780
3 75 782 76
3 75 783 781
3 80 784 783
3 82 785 784
3 84 786 785
3 86 787 786
3 88 788 787
3 90 789 788
3 92 791 789
3 93 791 94
3 96 790 93
3 98 792 96
3 100 793 98
3 102 794 100
3 104 795 102
3 106 796 104
3 2 797 106
3 0 3 1
3 3 5 4
3 5 7 6
3 7 9 8
3 9 11 10
3 11 13 12
3 13 15 14
3 15 17 16
3 17 19 18
3 19 21 20
3 21 23 22
3 23 25 24
3 25 27 26
3 27 29 28
3 29 31 30
3 31 799 32
3 32 799 33
3 34 33 35
3 36 35 37
3 38 37 39
3 40 39 41
3 42 41 43
3 44 43 45
3 46 45 47
3 48 47 49
3 50 49 51
3 52 51 53
3 54 53 55
3 56 55 57
3 58 57 59
3 60 59 61
3 0 2 62
3 63 798 64
3 66 68 63
3 67 70 68
3 69 72 70
3 71 74 72
3 73 76 74
3 73 78 75
3 77 80 75
3 79 82 80
3 81 84 82
3 83 86 84
3 85 88 86
3 87 90 88
3 89 92 90
3 91 94 92
3 91 95 93
3 95 97 96
3 97 99 98
3 99 101 100
3 101 103 102
3 103 105 104
3 105 107 106
3 2 106 107
3 108 110 65
3 109 66 65
3 111 67 66
3 112 69 67
3 113 71 69
3 114 73 71
3 114 116 78
3 115 77 78
3 117 79 77
3 118 81 79
3 119 83 81
3 120 85 83
3 121 87 85
3 122 89 87
3 123 91 89
3 123 124 95
3 124 125 97
3 125 126 99
3 126 127 101
3 127 128 103
3 128 129 105
3 129 130 107
3 130 60 62
3 131 133 110
3 132 109 110
3 134 111 109
3 135 112 111
3 136 113 112
3 137 114 113
3 137 139 116
3 138 115 116
3 140 117 115
3 141 118 117
3 142 119 118
3 143 120 119
3 144 121 120
3 145 122 121
3 146 123 122
3 146 147 124
3 147 148 125
3 148 149 126
3 149 150 127
3 150 151 128
3 151 152 129
3 152 153 130
3 153 58 60
3 154 156 133
3 155 132 133
3 157 134 132
3 158 135 134
3 159 136 135
3 160 137 136
3 160 162 139
3 161 138 139
3 163 140 138
3 164 141 140
3 165 142 141
3 166 143 142
3 167 144 143
3 168 145 144
3 169 146 145
3 169 170 147
3 170 171 148
3 171 172 149
3 172 173 150
3 173 174 151
3 174 175 152
3 175 176 153
3 176 56 58
3 177 179 156
3 178 155 156
3 180 157 155
3 181 158 157
3 182 159 158
3 183 160 159
3 183 185 162
3 184 161 162
3 186 163 161
3 187 164 163
3 188 165 164
3 189 166 165
3 190 167 166
3 191 168 167
3 192 169 168
3 192 193 170
3 193 194 171
3 194 195 172
3 195 196 173
3 196 197 174
3 197 198 175
3 198 199 176
3 199 54 56
3 200 202 179
3 201 178 179
3 203 180 178
3 204 181 180
3 205 182 181
3 206 183 182
3 206 208 185
3 207 184 185
3 209 186 184
3 210 187 186
3 211 188 187
3 212 189 188
3 213 190 189
3 214 191 190
3 215 192 191
3 215 216 193
3 216 217 194
3 217 218 195
3 218 219 196
3 219 220 197
3 220 221 198
3 221 222 199
3 222 52 54
3 223 225 202
3 224 201 202
3 226 203 201
3 227 204 203
3 228 205 204
3 229 206 205
3 229 231 208
3 230 207 208
3 232 209 207
3 233 210 209
3 234 211 210
3 235 212 211
3 236 213 212
3 237 214 213
3 238 215 214
3 238 239 216
3 239 240 217
3 240 241 218
3 241 242 219
3 242 243 220
3 243 244 221
3 244 245 222
3 245 50 52
3 246 248 225
3 247 224 225
3 249 226 224
3 250 227 226
3 251 228 227
3 252 229 228
3 252 254 231
3 253 230 231
3 255 232 230
3 256 233 232
3 257 234 233
3 258 235 234
3 259 236 235
3 260 237 236
3 261 238 237
3 261 262 239
3 262 263 240
3 263 264 241
3 264 265 242
3 265 266 243
3 266 267 244
3 267 268 245
3 268 48 50
3 269 271 248
3 270 247 248
3 272 249 247
3 273 250 249
3 274 251 250
3 275 252 251
3 275 277 254
3 276 253 254
3 278 255 253
3 279 256 255
3 280 257 256
3 281 258 257
3 282 259 258
3 283 260 259
3 284 261 260
3 284 285 262
3 285 286 263
3 286 287 264
3 287 288 265
3 288 289 266
3 289 290 267
3 290 291 268
3 291 46 48
3 292 294 271
3 293 270 271
3 295 272 270
3 296 273 272
3 297 274 273
3 298 275 274
3 298 300 277
3 299 276 277
3 301 278 276
3 302 279 278
3 303 280 279
3 304 281 280
3 305 282 281
3 306 283 282
3 307 284 283
3 307 308 285
3 308 309 286
3 309 310 287
3 310 311 288
3 311 312 289
3 312 313 290
3 313 314 291
3 314 44 46
3 315 317 294
3 316 293 294
3 318 295 293
3 319 296 295
3 320 297 296
3 321 298 297
3 321 323 300
3 322 299 300
3 324 301 299
3 325 302 301
3 326 303 302
3 327 304 303
3 328 305 304
3 329 306 305
3 330 307 306
3 330 331 308
3 331 332 309
3 332 333 310
3 333 334 311
3 334 335 312
3 335 336 313
3 336 337 314
3 337 42 44
3 338 340 317
3 339 316 317
3 341 318 316
3 342 319 318
3 343 320 319
3 344 321 320
3 344 346 323
3 345 322 323
3 347 324 322
3 348 325 324
3 349 326 325
3 350 327 326
3 351 328 327
3 352 329 328
3 353 330 329
3 353 354 331
3 354 355 332
3 355 356 333
3 356 357 334
3 357 358 335
3 358 359 336
3 359 360 337
3 360 40 42
3 361 363 340
3 362 339 340
3 364 341 339
3 365 342 341
3 366 343 342
3 367 344 343
3 367 369 346
3 368 345 346
3 370 347 345
3 371 348 347
3 372 349 348
3 373 350 349
3 374 351 350
3 375 352 351
3 376 353 352
3 376 377 354
3 377 378 355
3 378 379 356
3 379 380 357
3 380 381 358
3 381 382 359
3 382 383 360
3 383 38 40
3 384 386 363
3 385 362 363
3 387 364 362
3 388 365 364
3 389 366 365
3 390 367 366
3 390 392 369
3 391 368 369
3 393 370 368
3 394 371 370
3 395 372 371
3 396 373 372
3 397 374 373
3 398 375 374
3 399 376 375
3 399 400 377
3 400 401 378
3 401 402 379
3 402 403 380
3 403 404 381
3 404 405 382
3 405 406 383
3 406 36 38
3 407 409 386
3 408 385 386
3 410 387 385
3 411 388 387
3 412 389 388
3 413 390 389
3 413 415 392
3 414 391 392
3 416 393 391
3 417 394 393
3 418 395 394
3 419 396 395
3 420 397 396
3 421 398 397
3 422 399 398
3 422 423 400
3 423 424 401
3 424 425 402
3 425 426 403
3 426 427 404
3 427 428 405
3 428 429 406
3 429 34 36
3 430 432 409
3 431 408 409
3 433 410 408
3 434 411 410
3 435 412 411
3 436 413 412
3 436 438 415
3 437 414 415
3 439 416 414
3 440 417 416
3 441 418 417
3 442 419 418
3 443 420 419
3 444 421 420
3 445 422 421
3 445 446 423
3 446 447 424
3 447 448 425
3 448 449 426
3 449 450 427
3 450 451 428
3 451 452 429
3 452 32 34
3 453 432 430
3 453 455 431
3 455 456 433
3 456 457 434
3 457 458 435
3 458 460 436
3 459 438 436
3 459 461 437
3 461 462 439
3 462 463 440
3 463 464 441
3 464 465 442
3 465 466 443
3 466 467 444
3 467 469 445
3 468 446 445
3 470 447 446
3 471 448 447
3 472 449 448
3 473 450 449
3 474 451 450
3 475 452 451
3 30 32 452
3 476 453 454
3 476 478 455
3 478 479 456
3 479 480 457
3 480 481 458
3 481 483 460
3 482 459 460
3 482 484 461
3 484 485 462
3 485 486 463
3 486 487 464
3 487 488 465
3 488 489 466
3 489 490 467
3 490 492 469
3 491 468 469
3 493 470 468
3 494 471 470
3 495 472 471
3 496 473 472
3 497 474 473
3 498 475 474
3 28 30 475
3 499 476 477
3 499 501 478
3 501 502 479
3 502 503 480
3 503 504 481
3 504 506 483
3 505 482 483
3 505 507 484
3 507 508 485
3 508 509 486
3 509 510 487
3 510 511 488
3 511 512 489
3 512 513 490
3 513 515 492
3 514 491 492
3 516 493 491
3 517 494 493
3 518 495 494
3 519 496 495
3 520 497 496
3 521 498 497
3 26 28 498
3 522 499 500
3 522 524 501
3 524 525 502
3 525 526 503
3 526 527 504
3 527 529 506
3 528 505 506
3 528 530 507
3 530 531 508
3 531 532 509
3 532 533 510
3 533 534 511
3 534 535 512
3 535 536 513
3 536 538 515
3 537 514 515
3 539 516 514
3 540 517 516
3 541 518 517
3 542 519 518
3 543 520 519
3 544 521 520
3 24 26 521
3 545 522 523
3 545 547 524
3 547 548 525
3 548 549 526
3 549 550 527
3 550 552 529
3 551 528 529
3 551 553 530
3 553 554 531
3 554 555 532
3 555 556 533
3 556 557 534
3 557 558 535
3 558 559 536
3 559 561 538
3 560 537 538
3 562 539 537
3 563 540 539
3 564 541 540
3 565 542 541
3 566 543 542
3 567 544 543
3 22 24 544
3 568 545 546
3 568 570 547
3 570 571 548
3 571 572 549
3 572 573 550
3 573 575 552
3 574 551 552
3 574 576 553
3 576 577 554
3 577 578 555
3 578 579 556
3 579 580 557
3 580 581 558
3 581 582 559
3 582 584 561
3 583 560 561
3 585 562 560
3 586 563 562
3 587 564 563
3 588 565 564
3 589 566 565
3 590 567 566
3 20 22 567
3 591 568 569
3 591 593 570
3 593 594 571
3 594 595 572
3 595 596 573
3 596 598 575
3 597 574 575
3 597 599 576
3 599 600 577
3 600 601 578
3 601 602 579
3 602 603 580
3 603 604 581
3 604 605 582
3 605 607 584
3 606 583 584
3 608 585 583
3 609 586 585
3 610 587 586
3 611 588 587
3 612 589 588
3 613 590 589
3 18 20 590
3 614 591 592
3 614 616 593
3 616 617 594
3 617 618 595
3 618 619 596
3 619 621 598
3 620 597 598
3 620 622 599
3 622 623 600
3 623 624 601
3 624 625 602
3 625 626 603
3 626 627 604
3 627 628 605
3 628 630 607
3 629 606 607
3 631 608 606
3 632 609 608
3 633 610 609
3 634 611 610
3 635 612 611
3 636 613 612
3 16 18 613
3 637 614 615
3 637 639 616
3 639 640 617
3 640 641 618
3 641 642 619
3 642 644 621
3 643 620 621
3 643 645 622
3 645 646 623
3 646 647 624
3 647 648 625
3 648 649 626
3 649 650 627
3 650 651 628
3 651 653 630
3 652 629 630
3 654 631 629
3 655 632 631
3 656 633 632
3 657 634 633
3 658 635 634
3 659 636 635
3 14 16 636
3 660 637 638
3 660 662 639
3 662 663 640
3 663 664 641
3 664 665 642
3 665 667 644
3 666 643 644
3 666 668 645
3 668 669 646
3 669 670 647
3 670 671 648
3 671 672 649
3 672 673 650
3 673 674 651
3 674 676 653
3 675 652 653
3 677 654 652
3 678 655 654
3 679 656 655
3 680 657 656
3 681 658 657
3 682 659 658
3 12 14 659
3 683 660 661
3 683 685 662
3 685 686 663
3 686 687 664
3 687 688 665
3 688 690 667
3 689 666 667
3 689 691 668
3 691 692 669
3 692 693 670
3 693 694 671
3 694 695 672
3 695 696 673
3 696 697 674
3 697 699 676
3 698 675 676
3 700 677 675
3 701 678 677
3 702 679 678
3 703 680 679
3 704 681 680
3 705 682 681
3 10 12 682
3 706 683 684
3 706 708 685
3 708 709 686
3 709 710 687
3 710 711 688
3 711 713 690
3 712 689 690
3 712 714 691
3 714 715 692
3 715 716 693
3 716 717 694
3 717 718 695
3 718 719 696
3 719 720 697
3 720 722 699
3 721 698 699
3 723 700 698
3 724 701 700
3 725 702 701
3 726 703 702
3 727 704 703
3 728 705 704
3 8 10 705
3 729 706 707
3 729 731 708
3 731 732 709
3 732 733 710
3 733 734 711
3 734 736 713
3 735 712 713
3 735 737 714
3 737 738 715
3 738 739 716
3 739 740 717
3 740 741 718
3 741 742 719
3 742 743 720
3 743 745 722
3 744 721 722
3 746 723 721
3 747 724 723
3 748 725 724
3 749 726 725
3 750 727 726
3 751 728 727
3 6 8 728
3 752 729 730
3 752 754 731
3 754 755 732
3 755 756 733
3 756 757 734
3 757 759 736
3 758 735 736
3 758 760 737
3 760 761 738
3 761 762 739
3 762 763 740
3 763 764 741
3 764 765 742
3 765 766 743
3 766 768 745
3 767 744 745
3 769 746 744
3 770 747 746
3 771 748 747
3 772 749 748
3 773 750 749
3 774 751 750
3 4 6 751
3 775 752 753
3 775 777 754
3 777 778 755
3 778 779 756
3 779 780 757
3 780 782 759
3 781 758 759
3 781 783 760
3 783 784 761
3 784 785 762
3 785 786 763
3 786 787 764
3 787 788 765
3 788 789 766
3 789 791 768
3 790 767 768
3 792 769 767
3 793 770 769
3 794 771 770
3 795 772 771
3 796 773 772
3 797 774 773
3 1 4 774
3 63 775 776
3 63 68 777
3 68 70 778
3 70 72 779
3 72 74 780
3 74 76 782
3 75 781 782
3 75 80 783
3 80 82 784
3 82 84 785
3 84 86 786
3 86 88 787
3 88 90 788
3 90 92 789
3 92 94 791
3 93 790 791
3 96 792 790
3 98 793 792
3 100 794 793
3 102 795 794
3 104 796 795
3 106 797 796
3 2 1 797
