ply
format ascii 1.0
comment Created by Blender 2.79 (sub 0) - www.blender.org, source file: ''
element vertex 88
property float x
property float y
property float z
element face 43
property list uchar uint vertex_indices
end_header
3.994625 -1.000000 0.641880
4.157887 -1.000000 0.640477
4.157887 1.000000 0.640477
3.994626 1.000000 0.641880
-1.884449 -1.000000 3.130830
-1.747941 -1.000000 3.041265
-1.747941 1.000000 3.041264
-1.884449 1.000000 3.130830
-1.611433 -1.000000 2.951699
-1.611432 1.000000 2.951699
-1.474925 -1.000000 2.862134
-1.474924 1.000000 2.862133
-1.338417 -1.000000 2.772568
-1.338416 1.000000 2.772568
-1.201909 -1.000000 2.683003
-1.201909 1.000000 2.683002
-1.065401 -1.000000 2.593437
-1.065401 1.000000 2.593437
-0.939588 -1.000000 2.509684
-0.939587 1.000000 2.509683
-0.824463 -1.000000 2.422838
-0.824462 1.000000 2.422838
-0.717957 -1.000000 2.328271
-0.717957 1.000000 2.328270
-0.620396 -1.000000 2.225808
-0.620395 1.000000 2.225807
-0.532042 -1.000000 2.114701
-0.532042 1.000000 2.114700
-0.451494 -1.000000 1.994993
-0.451494 1.000000 1.994993
-0.376817 -1.000000 1.866606
-0.376817 1.000000 1.866605
-0.304966 -1.000000 1.730110
-0.304966 1.000000 1.730109
-0.231990 -1.000000 1.586726
-0.231989 1.000000 1.586725
-0.153189 -1.000000 1.438491
-0.153188 1.000000 1.438490
-0.063711 -1.000000 1.288554
-0.063711 1.000000 1.288553
0.042280 -1.000000 1.140047
0.042281 1.000000 1.140046
0.172912 -1.000000 0.998294
0.172913 1.000000 0.998294
0.331840 -1.000000 0.875846
0.331841 1.000000 0.875845
0.509658 -1.000000 0.785555
0.509659 1.000000 0.785554
0.691710 -1.000000 0.727676
0.691711 1.000000 0.727676
0.870465 -1.000000 0.693611
0.870466 1.000000 0.693610
1.044754 -1.000000 0.674987
1.044755 1.000000 0.674987
1.215289 -1.000000 0.666578
1.215290 1.000000 0.666578
1.382432 -1.000000 0.664339
1.382434 1.000000 0.664339
1.545695 -1.000000 0.662935
1.545696 1.000000 0.662935
1.708957 -1.000000 0.661531
1.708958 1.000000 0.661531
1.872219 -1.000000 0.660128
1.872220 1.000000 0.660128
2.035481 -1.000000 0.658724
2.035482 1.000000 0.658724
2.198743 -1.000000 0.657320
2.198744 1.000000 0.657320
2.362005 -1.000000 0.655917
2.362006 1.000000 0.655917
2.525266 -1.000000 0.654513
2.525268 1.000000 0.654513
2.688529 -1.000000 0.653109
2.688530 1.000000 0.653109
2.851790 -1.000000 0.651706
2.851792 1.000000 0.651706
3.015053 -1.000000 0.650302
3.015054 1.000000 0.650302
3.178314 -1.000000 0.648899
3.178315 1.000000 0.648898
3.341576 -1.000000 0.647495
3.341578 1.000000 0.647495
3.504839 -1.000000 0.646091
3.504839 1.000000 0.646091
3.668101 -1.000000 0.644688
3.668101 1.000000 0.644688
3.831363 -1.000000 0.643284
3.831363 1.000000 0.643284
4 0 1 2 3
4 4 5 6 7
4 5 8 9 6
4 8 10 11 9
4 10 12 13 11
4 12 14 15 13
4 14 16 17 15
4 16 18 19 17
4 18 20 21 19
4 20 22 23 21
4 22 24 25 23
4 24 26 27 25
4 26 28 29 27
4 28 30 31 29
4 30 32 33 31
4 32 34 35 33
4 34 36 37 35
4 36 38 39 37
4 38 40 41 39
4 40 42 43 41
4 42 44 45 43
4 44 46 47 45
4 46 48 49 47
4 48 50 51 49
4 50 52 53 51
4 52 54 55 53
4 54 56 57 55
4 56 58 59 57
4 58 60 61 59
4 60 62 63 61
4 62 64 65 63
4 64 66 67 65
4 66 68 69 67
4 68 70 71 69
4 70 72 73 71
4 72 74 75 73
4 74 76 77 75
4 76 78 79 77
4 78 80 81 79
4 80 82 83 81
4 82 84 85 83
4 84 86 87 85
4 86 0 3 87
