ply
format ascii 1.0
comment Created by Blender 2.79 (sub 0) - www.blender.org, source file: ''
element vertex 88
property float x
property float y
property float z
element face 86
property list uchar uint vertex_indices
end_header
4.157887 -1.000000 0.640477
3.994626 1.000000 0.641880
3.994625 -1.000000 0.641880
-1.747941 -1.000000 3.041265
-1.884449 1.000000 3.130830
-1.884449 -1.000000 3.130830
-1.611433 -1.000000 2.951699
-1.747941 1.000000 3.041264
-1.474925 -1.000000 2.862134
-1.611432 1.000000 2.951699
-1.338417 -1.000000 2.772568
-1.474924 1.000000 2.862133
-1.201909 -1.000000 2.683003
-1.338416 1.000000 2.772568
-1.065401 -1.000000 2.593437
-1.201909 1.000000 2.683002
-0.939588 -1.000000 2.509684
-1.065401 1.000000 2.593437
-0.824463 -1.000000 2.422838
-0.939587 1.000000 2.509683
-0.717957 -1.000000 2.328271
-0.824462 1.000000 2.422838
-0.620396 -1.000000 2.225808
-0.717957 1.000000 2.328270
-0.532042 -1.000000 2.114701
-0.620395 1.000000 2.225807
-0.451494 -1.000000 1.994993
-0.532042 1.000000 2.114700
-0.376817 -1.000000 1.866606
-0.451494 1.000000 1.994993
-0.304966 -1.000000 1.730110
-0.376817 1.000000 1.866605
-0.231990 -1.000000 1.586726
-0.304966 1.000000 1.730109
-0.153189 -1.000000 1.438491
-0.231989 1.000000 1.586725
-0.063711 -1.000000 1.288554
-0.153188 1.000000 1.438490
0.042280 -1.000000 1.140047
-0.063711 1.000000 1.288553
0.172912 -1.000000 0.998294
0.042281 1.000000 1.140046
0.331840 -1.000000 0.875846
0.172913 1.000000 0.998294
0.509658 -1.000000 0.785555
0.331841 1.000000 0.875845
0.691710 -1.000000 0.727676
0.509659 1.000000 0.785554
0.870465 -1.000000 0.693611
0.691711 1.000000 0.727676
1.044754 -1.000000 0.674987
0.870466 1.000000 0.693610
1.215289 -1.000000 0.666578
1.044755 1.000000 0.674987
1.382432 -1.000000 0.664339
1.215290 1.000000 0.666578
1.545695 -1.000000 0.662935
1.382434 1.000000 0.664339
1.708957 -1.000000 0.661531
1.545696 1.000000 0.662935
1.872219 -1.000000 0.660128
1.708958 1.000000 0.661531
2.035481 -1.000000 0.658724
1.872220 1.000000 0.660128
2.198743 -1.000000 0.657320
2.035482 1.000000 0.658724
2.362005 -1.000000 0.655917
2.198744 1.000000 0.657320
2.525266 -1.000000 0.654513
2.362006 1.000000 0.655917
2.688529 -1.000000 0.653109
2.525268 1.000000 0.654513
2.851790 -1.000000 0.651706
2.688530 1.000000 0.653109
3.015053 -1.000000 0.650302
2.851792 1.000000 0.651706
3.178314 -1.000000 0.648899
3.015054 1.000000 0.650302
3.341576 -1.000000 0.647495
3.178315 1.000000 0.648898
3.504839 -1.000000 0.646091
3.341578 1.000000 0.647495
3.668101 -1.000000 0.644688
3.504839 1.000000 0.646091
3.831363 -1.000000 0.643284
3.668101 1.000000 0.644688
3.831363 1.000000 0.643284
4.157887 1.000000 0.640477
3 0 1 2
3 3 4 5
3 6 7 3
3 8 9 6
3 10 11 8
3 12 13 10
3 14 15 12
3 16 17 14
3 18 19 16
3 20 21 18
3 22 23 20
3 24 25 22
3 26 27 24
3 28 29 26
3 30 31 28
3 32 33 30
3 34 35 32
3 36 37 34
3 38 39 36
3 40 41 38
3 42 43 40
3 44 45 42
3 46 47 44
3 48 49 46
3 50 51 48
3 52 53 50
3 54 55 52
3 56 57 54
3 58 59 56
3 60 61 58
3 62 63 60
3 64 65 62
3 66 67 64
3 68 69 66
3 70 71 68
3 72 73 70
3 74 75 72
3 76 77 74
3 78 79 76
3 80 81 78
3 82 83 80
3 84 85 82
3 2 86 84
3 0 87 1
3 3 7 4
3 6 9 7
3 8 11 9
3 10 13 11
3 12 15 13
3 14 17 15
3 16 19 17
3 18 21 19
3 20 23 21
3 22 25 23
3 24 27 25
3 26 29 27
3 28 31 29
3 30 33 31
3 32 35 33
3 34 37 35
3 36 39 37
3 38 41 39
3 40 43 41
3 42 45 43
3 44 47 45
3 46 49 47
3 48 51 49
3 50 53 51
3 52 55 53
3 54 57 55
3 56 59 57
3 58 61 59
3 60 63 61
3 62 65 63
3 64 67 65
3 66 69 67
3 68 71 69
3 70 73 71
3 72 75 73
3 74 77 75
3 76 79 77
3 78 81 79
3 80 83 81
3 82 85 83
3 84 86 85
3 2 1 86
